<svg width="84" height="84" viewBox="0 0 84 84" fill="none" xmlns="http://www.w3.org/2000/svg">
<g clip-path="url(#clip0_36_118)">
<path fill-rule="evenodd" clip-rule="evenodd" d="M84 18.2V65.8C84.0048 68.1914 83.5373 70.5602 82.6244 72.7705C81.7114 74.9807 80.371 76.989 78.68 78.68C76.989 80.3709 74.9808 81.7114 72.7705 82.6243C70.5602 83.5372 68.1914 84.0047 65.8 84H18.2C15.8086 84.0047 13.4398 83.5372 11.2295 82.6243C9.01926 81.7114 7.01102 80.3709 5.32004 78.68C3.62906 76.989 2.28864 74.9807 1.3757 72.7705C0.462754 70.5602 -0.00474152 68.1914 3.62544e-05 65.8V18.2C-0.00474152 15.8086 0.462754 13.4398 1.3757 11.2295C2.28864 9.0192 3.62906 7.01095 5.32004 5.31998C7.01102 3.629 9.01926 2.28858 11.2295 1.37564C13.4398 0.462693 15.8086 -0.00480255 18.2 -2.47808e-05H65.8C68.1914 -0.00480255 70.5602 0.462693 72.7705 1.37564C74.9808 2.28858 76.989 3.629 78.68 5.31998C80.371 7.01095 81.7114 9.0192 82.6244 11.2295C83.5373 13.4398 84.0048 15.8086 84 18.2Z" fill="url(#paint0_linear_36_118)"/>
<path fill-rule="evenodd" clip-rule="evenodd" d="M57.8201 48.3H68.2501C69.2712 48.3 70.2504 48.7056 70.9724 49.4276C71.6944 50.1496 72.1001 51.1289 72.1001 52.15C72.1001 53.1711 71.6944 54.1503 70.9724 54.8723C70.2504 55.5944 69.2712 56 68.2501 56H57.8201V48.3Z" fill="white"/>
<path fill-rule="evenodd" clip-rule="evenodd" d="M45.0099 48.3C45.7373 48.2956 46.4584 48.4357 47.1313 48.7121C47.8042 48.9884 48.4155 49.3956 48.9299 49.91C49.4443 50.4244 49.8515 51.0357 50.1278 51.7086C50.4042 52.3815 50.5443 53.1026 50.5399 53.83C50.5427 54.5738 50.4 55.311 50.1199 56H15.7499C14.7288 56 13.7496 55.5944 13.0275 54.8723C12.3055 54.1503 11.8999 53.1711 11.8999 52.15C11.8999 51.1289 12.3055 50.1496 13.0275 49.4276C13.7496 48.7056 14.7288 48.3 15.7499 48.3H45.0099ZM44.0299 22.96V29.68H39.5499L34.0899 20.3C33.8501 19.8863 33.6942 19.4294 33.6311 18.9554C33.568 18.4814 33.599 17.9996 33.7223 17.5375C33.8456 17.0755 34.0587 16.6423 34.3496 16.2628C34.6404 15.8832 35.0032 15.5647 35.4173 15.3254C35.8313 15.0862 36.2885 14.931 36.7626 14.8686C37.2367 14.8062 37.7184 14.8379 38.1803 14.9618C38.6421 15.0858 39.075 15.2995 39.4541 15.5909C39.8333 15.8823 40.1513 16.2456 40.3899 16.66L44.0299 22.96ZM47.8799 29.47L66.9899 62.58C67.5004 63.4618 67.6398 64.5104 67.3772 65.4949C67.1147 66.4795 66.4717 67.3195 65.5899 67.83C64.7081 68.3405 63.6595 68.4799 62.675 68.2173C61.6904 67.9548 60.8504 67.3118 60.3399 66.43L48.7899 46.34C47.7399 44.38 46.9699 42.84 46.4799 42C45.3296 40.0401 44.8443 37.7607 45.0966 35.5022C45.349 33.2438 46.3254 31.1276 47.8799 29.47Z" fill="white"/>
<path fill-rule="evenodd" clip-rule="evenodd" d="M32.2001 51.8H23.3101L43.4001 17.01C43.9106 16.1282 44.7506 15.4852 45.7351 15.2227C46.7197 14.9601 47.7682 15.0995 48.6501 15.61C49.5319 16.1205 50.1749 16.9605 50.4374 17.9451C50.7 18.9296 50.5606 19.9782 50.0501 20.86L32.2001 51.8ZM27.5101 59.85L23.8001 66.36C23.5473 66.7967 23.211 67.1792 22.8103 67.4859C22.4097 67.7926 21.9526 68.0173 21.465 68.1473C20.9775 68.2773 20.4692 68.31 19.969 68.2436C19.4689 68.1771 18.9867 68.0128 18.5501 67.76C18.1134 67.5072 17.7309 67.1709 17.4242 66.7702C17.1175 66.3696 16.8928 65.9125 16.7628 65.425C16.6328 64.9375 16.6001 64.4291 16.6665 63.929C16.733 63.4288 16.8973 62.9467 17.1501 62.51L19.8801 57.75C20.7279 57.3282 21.6632 57.1123 22.6101 57.12C23.5977 57.0876 24.5755 57.3245 25.4387 57.8055C26.3019 58.2864 27.0179 58.9932 27.5101 59.85Z" fill="white"/>
</g>
<defs>
<linearGradient id="paint0_linear_36_118" x1="41.9993" y1="84" x2="41.9993" y2="-2.09808e-05" gradientUnits="userSpaceOnUse">
<stop stop-color="#1D6FF2"/>
<stop offset="1" stop-color="#1AC8FC"/>
</linearGradient>
<clipPath id="clip0_36_118">
<rect width="84" height="84" fill="white"/>
</clipPath>
</defs>
</svg>
