<svg width="84" height="84" viewBox="0 0 84 84" fill="none" xmlns="http://www.w3.org/2000/svg">
<path d="M65.8 0H18.2C8.14842 0 0 8.14842 0 18.2V65.8C0 75.8516 8.14842 84 18.2 84H65.8C75.8516 84 84 75.8516 84 65.8V18.2C84 8.14842 75.8516 0 65.8 0Z" fill="url(#paint0_linear_36_21)"/>
<path d="M58.1001 10.5H25.9C22.8073 10.5 20.3 13.0072 20.3 16.1V67.9C20.3 70.9928 22.8073 73.5 25.9 73.5H58.1001C61.1928 73.5 63.7001 70.9928 63.7001 67.9V16.1C63.7001 13.0072 61.1928 10.5 58.1001 10.5Z" fill="#1C1C1C"/>
<path d="M56.7 14.7H27.3C25.7536 14.7 24.5 15.9536 24.5 17.5V26.6C24.5 28.1464 25.7536 29.4 27.3 29.4H56.7C58.2464 29.4 59.5 28.1464 59.5 26.6V17.5C59.5 15.9536 58.2464 14.7 56.7 14.7Z" fill="#505050"/>
<path d="M28.7 42.7C31.0196 42.7 32.9 40.8196 32.9 38.5C32.9 36.1804 31.0196 34.3 28.7 34.3C26.3804 34.3 24.5 36.1804 24.5 38.5C24.5 40.8196 26.3804 42.7 28.7 42.7Z" fill="#D4D4D2"/>
<path d="M42 42.7C44.3196 42.7 46.2001 40.8196 46.2001 38.5C46.2001 36.1804 44.3196 34.3 42 34.3C39.6805 34.3 37.8 36.1804 37.8 38.5C37.8 40.8196 39.6805 42.7 42 42.7Z" fill="#D4D4D2"/>
<path d="M55.3001 42.7C57.6197 42.7 59.5001 40.8196 59.5001 38.5C59.5001 36.1804 57.6197 34.3 55.3001 34.3C52.9805 34.3 51.1001 36.1804 51.1001 38.5C51.1001 40.8196 52.9805 42.7 55.3001 42.7Z" fill="#FE9500"/>
<path d="M28.7 56C31.0196 56 32.9 54.1196 32.9 51.8C32.9 49.4804 31.0196 47.6 28.7 47.6C26.3804 47.6 24.5 49.4804 24.5 51.8C24.5 54.1196 26.3804 56 28.7 56Z" fill="#D4D4D2"/>
<path d="M42 56C44.3196 56 46.2001 54.1196 46.2001 51.8C46.2001 49.4804 44.3196 47.6 42 47.6C39.6805 47.6 37.8 49.4804 37.8 51.8C37.8 54.1196 39.6805 56 42 56Z" fill="#D4D4D2"/>
<path d="M55.3001 56C57.6197 56 59.5001 54.1196 59.5001 51.8C59.5001 49.4804 57.6197 47.6 55.3001 47.6C52.9805 47.6 51.1001 49.4804 51.1001 51.8C51.1001 54.1196 52.9805 56 55.3001 56Z" fill="#FE9500"/>
<path d="M28.7 69.3C27.5861 69.3 26.5178 68.8575 25.7302 68.0699C24.9425 67.2822 24.5 66.2139 24.5 65.1C24.5 63.9861 24.9425 62.9178 25.7302 62.1302C26.5178 61.3425 27.5861 60.9 28.7 60.9H42C43.1139 60.9 44.1822 61.3425 44.9698 62.1302C45.7575 62.9178 46.2 63.9861 46.2 65.1C46.2 66.2139 45.7575 67.2822 44.9698 68.0699C44.1822 68.8575 43.1139 69.3 42 69.3H28.7Z" fill="#D4D4D2"/>
<path d="M55.3001 69.3C57.6197 69.3 59.5001 67.4196 59.5001 65.1C59.5001 62.7804 57.6197 60.9 55.3001 60.9C52.9805 60.9 51.1001 62.7804 51.1001 65.1C51.1001 67.4196 52.9805 69.3 55.3001 69.3Z" fill="#FE9500"/>
<defs>
<linearGradient id="paint0_linear_36_21" x1="41.475" y1="83.37" x2="42.532" y2="-0.112001" gradientUnits="userSpaceOnUse">
<stop stop-color="#D4D4D2"/>
<stop offset="1" stop-color="#D4D4D2"/>
</linearGradient>
</defs>
</svg>
