<svg width="140" height="140" viewBox="0 0 140 140" fill="none" xmlns="http://www.w3.org/2000/svg">
<path d="M107.333 0H32.6667C14.6254 0 0 14.6254 0 32.6667V107.333C0 125.375 14.6254 140 32.6667 140H107.333C125.375 140 140 125.375 140 107.333V32.6667C140 14.6254 125.375 0 107.333 0Z" fill="black"/>
<path d="M69.9999 130.667C103.505 130.667 130.667 103.505 130.667 70C130.667 36.4948 103.505 9.33337 69.9999 9.33337C36.4946 9.33337 9.33325 36.4948 9.33325 70C9.33325 103.505 36.4946 130.667 69.9999 130.667Z" fill="white"/>
<path fill-rule="evenodd" clip-rule="evenodd" d="M96.4576 33.8333H98.2041V22.3253H96.4413L93.4103 24.4778V26.2325L96.4168 24.0951H96.4576V33.8333ZM110.533 44.3648V44.3811H112.224V44.3578C112.224 43.1608 113.172 42.252 114.432 42.252C115.629 42.252 116.555 43.0651 116.555 44.086C116.555 44.9878 116.187 45.5933 114.784 47.0528L110.629 51.2878V52.5H118.501V50.9926H113.037V50.953L115.916 48.0573C117.599 46.3353 118.316 45.339 118.316 43.9973C118.316 42.1715 116.683 40.7773 114.49 40.7773C112.199 40.7773 110.533 42.2916 110.533 44.3648ZM118.168 69.4586H119.603C121.119 69.4586 122.059 70.224 122.059 71.4688C122.059 72.5935 121.056 73.3903 119.651 73.3903C118.2 73.3903 117.291 72.632 117.178 71.5318H115.465C115.577 73.5186 117.172 74.8825 119.652 74.8825C122.053 74.8825 123.879 73.5023 123.879 71.4921C123.879 69.8821 122.762 68.8205 121.032 68.7015V68.6688C122.459 68.4145 123.401 67.3855 123.401 65.9505C123.401 64.1795 121.814 62.9428 119.636 62.9428C117.355 62.9428 115.832 64.2425 115.696 66.2608H117.379C117.483 65.1291 118.313 64.4105 119.556 64.4105C120.92 64.4105 121.654 65.1198 121.654 66.1885C121.654 67.2735 120.8 68.0551 119.556 68.0551H118.168V69.4586ZM115.178 101.5V99.2273H109.419V97.664C110.409 95.8055 111.716 93.7405 114.308 89.992H116.892V97.727H118.471V99.2273H116.892V101.5H115.177H115.178ZM111.086 97.7118V97.7515H115.193V91.371H115.162C113.167 94.2503 112.003 96.0446 111.086 97.7118ZM95.3341 118.049C97.8144 118.049 99.5528 116.413 99.5528 114.053C99.5528 111.82 97.9661 110.201 95.7576 110.201C94.633 110.201 93.6915 110.64 93.1886 111.365H93.149L93.4686 107.833H98.8831V106.325H92.0325L91.4258 112.833H93.0614C93.5083 112.075 94.3693 111.62 95.3668 111.62C96.8018 111.62 97.8063 112.658 97.8063 114.101C97.8063 115.544 96.8029 116.557 95.3504 116.557C94.0671 116.557 93.086 115.775 92.9588 114.635H91.2508C91.3558 116.644 93.0369 118.049 95.3341 118.049ZM70.9181 126.223C69.2195 126.223 67.8556 125.354 67.1055 123.798C66.6353 122.881 66.3961 121.749 66.3961 120.401C66.3961 116.549 68.1193 114.268 70.9975 114.268C73.0321 114.268 74.6106 115.488 74.9618 117.322H73.1756C72.8956 116.382 72.0346 115.767 70.9823 115.767C69.1716 115.767 68.1193 117.411 68.1111 120.305H68.1426C68.6443 119.189 69.8658 118.439 71.3008 118.439C73.4941 118.439 75.1216 120.058 75.1216 122.243C75.1216 124.549 73.3588 126.223 70.9181 126.223ZM70.9018 124.715C71.2211 124.719 71.5379 124.659 71.8338 124.539C72.1298 124.419 72.3991 124.242 72.6261 124.017C72.853 123.793 73.0332 123.525 73.1562 123.231C73.2792 122.936 73.3425 122.62 73.3425 122.3C73.3425 120.904 72.3298 119.899 70.9181 119.899C69.5146 119.899 68.4693 120.903 68.4693 122.268C68.4693 123.632 69.531 124.715 70.9018 124.715ZM43.7873 117.833H45.6621L50.6625 107.872V106.325H42.8306V107.833H48.8996V107.872L43.7873 117.833ZM27.5485 101.716C24.9806 101.716 23.1933 100.336 23.1933 98.3896C23.1933 96.922 24.2305 95.7495 25.7541 95.431V95.3913C24.4778 95.0401 23.6565 94.0426 23.6565 92.8071C23.6565 91.0606 25.291 89.7761 27.5485 89.7761C29.813 89.7761 31.4323 91.0525 31.4323 92.8153C31.4323 94.0356 30.6191 95.0238 29.3428 95.3913V95.431C30.8735 95.7495 31.9025 96.9301 31.9025 98.3896C31.9025 100.344 30.1 101.715 27.5485 101.715V101.716ZM27.5485 100.281C29.0161 100.281 30.0521 99.4338 30.0521 98.2625C30.0521 97.0736 29.0161 96.2278 27.5485 96.2278C26.0808 96.2278 25.0355 97.0818 25.0355 98.2625C25.0355 99.4338 26.0808 100.281 27.5485 100.281ZM27.5485 94.7928C28.7851 94.7928 29.6695 94.0426 29.6695 92.9985C29.6695 91.9461 28.7921 91.196 27.5485 91.196C26.2955 91.196 25.4263 91.9461 25.4263 92.9985C25.4263 94.0426 26.2955 94.7928 27.5485 94.7928ZM17.9433 74.8825C15.8935 74.8825 14.3068 73.654 13.965 71.827H15.7581C16.03 72.7685 16.9073 73.3985 17.9678 73.3985C19.7621 73.3985 20.8145 71.7395 20.8145 68.8368H20.783C20.3198 69.9685 19.1076 70.7186 17.6248 70.7186C15.4396 70.7186 13.804 69.1005 13.804 66.9153C13.804 64.61 15.575 62.9346 18.0075 62.9346C19.7143 62.9346 21.0863 63.8038 21.8271 65.352C22.2985 66.269 22.5376 67.4006 22.5376 68.7493C22.5376 72.6005 20.8308 74.8825 17.9433 74.8825ZM18.0075 69.2591C19.4191 69.2591 20.4715 68.2465 20.4715 66.8908C20.4746 66.5698 20.4135 66.2514 20.2919 65.9543C20.1703 65.6572 19.9905 65.3875 19.7631 65.1609C19.5357 64.9343 19.2653 64.7554 18.9679 64.6347C18.6704 64.5141 18.3518 64.4541 18.0308 64.4583C16.66 64.4583 15.5831 65.52 15.5831 66.8593C15.5831 68.2383 16.6121 69.2591 18.0075 69.2591ZM23.8373 52.5H25.585V40.992H23.8221L20.79 43.1433V44.898L23.7965 42.7606H23.8361V52.5H23.8373ZM31.1488 52.7158C28.3896 52.7158 26.7551 50.4023 26.7551 46.7343C26.7551 43.0896 28.406 40.7761 31.1488 40.7761C33.901 40.7761 35.5273 43.0815 35.5273 46.7261C35.5273 50.3941 33.908 52.7158 31.1488 52.7158ZM31.1488 51.2155C32.7915 51.2155 33.7248 49.5168 33.7248 46.7343C33.7248 43.9903 32.7763 42.2753 31.1488 42.2753C29.5225 42.2753 28.5646 43.9985 28.5646 46.7343C28.5646 49.5098 29.5061 51.2155 31.1488 51.2155ZM41.5275 33.8333H43.274V22.3253H41.51L38.479 24.4778V26.2325L41.4855 24.0951H41.5263V33.8333H41.5275ZM47.5545 33.8333H49.301V22.3253H47.5393L44.5071 24.4778V26.2325L47.5148 24.0951H47.5545V33.8333ZM67.3598 25.6666H69.1063V14.1586H67.3435L64.3125 16.31V18.0646L67.319 15.9273H67.3598V25.6666ZM70.3803 17.5315V17.5478H72.0708V17.5245C72.0708 16.3275 73.0193 15.4186 74.2793 15.4186C75.4763 15.4186 76.4015 16.2318 76.4015 17.2526C76.4015 18.1545 76.034 18.76 74.6305 20.2195L70.476 24.4545V25.6666H78.3475V24.1593H72.884V24.1196L75.7633 21.224C77.4456 19.502 78.1643 18.5056 78.1643 17.164C78.1643 15.3381 76.5286 13.944 74.3353 13.944C72.0463 13.944 70.3803 15.4583 70.3803 17.5315Z" fill="black"/>
<path fill-rule="evenodd" clip-rule="evenodd" d="M70.2883 71.0916L38.7248 52.6111C38.5922 52.5331 38.4957 52.4058 38.4565 52.257C38.4172 52.1082 38.4384 51.9499 38.5153 51.8166L38.5171 51.8136C38.5553 51.7474 38.6062 51.6894 38.667 51.643C38.7277 51.5965 38.797 51.5625 38.8709 51.543C38.9448 51.5234 39.0218 51.5187 39.0975 51.529C39.1733 51.5393 39.2462 51.5645 39.3122 51.6031L70.8757 70.0836C71.0083 70.1616 71.1048 70.2889 71.144 70.4377C71.1833 70.5865 71.1621 70.7448 71.0851 70.8781L71.0834 70.8811C71.0452 70.9473 70.9942 71.0053 70.9335 71.0518C70.8728 71.0982 70.8035 71.1322 70.7296 71.1518C70.6557 71.1713 70.5787 71.1761 70.5029 71.1658C70.4272 71.1554 70.3542 71.1302 70.2883 71.0916Z" fill="black"/>
<path fill-rule="evenodd" clip-rule="evenodd" d="M70.2884 70.0805L117.502 43.3164C117.635 43.2405 117.794 43.2206 117.942 43.2611C118.091 43.3015 118.217 43.399 118.294 43.5323L118.297 43.5363C118.335 43.6025 118.36 43.6755 118.369 43.7513C118.379 43.827 118.374 43.904 118.354 43.9777C118.334 44.0514 118.299 44.1204 118.252 44.1807C118.206 44.241 118.147 44.2915 118.081 44.3291L70.8677 71.0932C70.7338 71.1691 70.5753 71.189 70.4268 71.1486C70.2783 71.1082 70.1518 71.0107 70.0749 70.8774L70.0725 70.8733C70.0344 70.8072 70.0096 70.7341 69.9998 70.6584C69.99 70.5826 69.9953 70.5057 70.0153 70.432C70.0354 70.3583 70.0699 70.2893 70.1167 70.229C70.1636 70.1686 70.2219 70.1182 70.2884 70.0805Z" fill="black"/>
<path d="M70.5832 73.5001C72.194 73.5001 73.4998 72.1942 73.4998 70.5834C73.4998 68.9726 72.194 67.6667 70.5832 67.6667C68.9723 67.6667 67.6665 68.9726 67.6665 70.5834C67.6665 72.1942 68.9723 73.5001 70.5832 73.5001Z" fill="black"/>
<path d="M70.5833 72.3333C71.5498 72.3333 72.3333 71.5498 72.3333 70.5833C72.3333 69.6168 71.5498 68.8333 70.5833 68.8333C69.6168 68.8333 68.8333 69.6168 68.8333 70.5833C68.8333 71.5498 69.6168 72.3333 70.5833 72.3333Z" fill="#FFCC51"/>
<path d="M71.1667 61.25C71.1667 60.9278 70.9055 60.6666 70.5833 60.6666C70.2612 60.6666 70 60.9278 70 61.25V124.25C70 124.572 70.2612 124.833 70.5833 124.833C70.9055 124.833 71.1667 124.572 71.1667 124.25V61.25Z" fill="#FFCC51"/>
</svg>
