<svg width="84" height="84" viewBox="0 0 84 84" fill="none" xmlns="http://www.w3.org/2000/svg">
<g clip-path="url(#clip0_36_107)">
<path fill-rule="evenodd" clip-rule="evenodd" d="M65.7998 84H18.1998C15.8084 84.0047 13.4396 83.5373 11.2293 82.6243C9.01902 81.7114 7.01077 80.3709 5.31979 78.68C3.62881 76.989 2.28839 74.9807 1.37545 72.7705C0.462509 70.5602 -0.00498657 68.1914 -0.000207872 65.8V18.2C-0.00498657 15.8086 0.462509 13.4398 1.37545 11.2295C2.28839 9.0192 3.62881 7.01095 5.31979 5.31997C7.01077 3.629 9.01902 2.28858 11.2293 1.37563C13.4396 0.462692 15.8084 -0.00480347 18.1998 -2.47668e-05H65.7998C68.1912 -0.00480347 70.56 0.462692 72.7703 1.37563C74.9806 2.28858 76.9888 3.629 78.6798 5.31997C80.3708 7.01095 81.7112 9.0192 82.6241 11.2295C83.5371 13.4398 84.0046 15.8086 83.9998 18.2V65.8C84.0046 68.1914 83.5371 70.5602 82.6241 72.7705C81.7112 74.9807 80.3708 76.989 78.6798 78.68C76.9888 80.3709 74.9806 81.7114 72.7703 82.6243C70.56 83.5373 68.1912 84.0047 65.7998 84Z" fill="#D8D6CC"/>
<path fill-rule="evenodd" clip-rule="evenodd" d="M83.9982 65.0123V65.7963C84.0047 68.267 83.5064 70.7131 82.5338 72.9844C81.5612 75.2557 80.1349 77.3043 78.3422 79.0047C77.4845 79.8248 76.5465 80.5565 75.5422 81.1887V65.0123H83.9982Z" fill="#4CD964"/>
<path d="M84 44.0111H75.5398V65.0111H84V44.0111Z" fill="#FF9500"/>
<path d="M84 23.0111H75.5398V44.0111H84V23.0111Z" fill="#5AC8FA"/>
<path d="M84 23.0111H75.5398V30.0111H84V23.0111Z" fill="url(#paint0_linear_36_107)"/>
<path d="M84.0007 44.0118H75.5405V51.0118H84.0007V44.0118Z" fill="url(#paint1_linear_36_107)"/>
<path fill-rule="evenodd" clip-rule="evenodd" d="M75.5398 65.0123V70.6123H83.3402C83.7732 69.0447 83.995 67.4263 83.9997 65.8V65.0123H75.5398Z" fill="url(#paint2_linear_36_107)"/>
<path fill-rule="evenodd" clip-rule="evenodd" d="M83.9998 18.2C84.0047 15.1315 83.2312 12.1119 81.7516 9.42368C80.2721 6.73547 78.1348 4.46646 75.5398 2.82892V23.0113H83.9998L83.9998 18.2Z" fill="#C4C2BA"/>
<path d="M39.3289 69.9983C44.5244 70.0035 49.6048 68.4677 53.9273 65.5851C58.2499 62.7024 61.6203 58.6025 63.6122 53.804C65.6041 49.0054 66.128 43.7239 65.1176 38.6275C64.1073 33.5312 61.608 28.849 57.9361 25.1733C54.2642 21.4976 49.5845 18.9936 44.4892 17.9781C39.3939 16.9626 34.1118 17.4811 29.3112 19.4681C24.5107 21.4552 20.4073 24.8214 17.5203 29.141C14.6333 33.4606 13.0923 38.5394 13.0923 43.7349C13.1176 50.688 15.8891 57.3494 20.8032 62.2685C25.7173 67.1876 32.3759 69.9658 39.3289 69.9983ZM39.3289 52.5161C30.387 52.5161 23.7208 56.6657 21.6058 60.2265C18.3947 56.7726 16.262 52.4562 15.4695 47.8073C14.677 43.1584 15.2592 38.3792 17.1446 34.0565C19.03 29.7338 22.1365 26.0557 26.0829 23.4736C30.0292 20.8916 34.6437 19.5181 39.3596 19.5216C44.0756 19.5252 48.688 20.9057 52.6304 23.4937C56.5729 26.0817 59.6739 29.7645 61.5527 34.09C63.4316 38.4156 64.0065 43.1956 63.207 47.8433C62.4075 52.4911 60.2683 56.8042 57.052 60.2532C54.937 56.6658 48.2975 52.5161 39.3289 52.5161ZM39.3289 47.8846C44.4691 47.8846 48.4046 43.5207 48.4046 37.8183C48.4046 32.4639 44.3888 27.9662 39.3289 27.9662C34.2958 27.9662 30.2531 32.4639 30.28 37.8183C30.28 43.5207 34.2154 47.8578 39.3289 47.8846Z" fill="#A9A29A"/>
<path fill-rule="evenodd" clip-rule="evenodd" d="M75.5422 81.1695C77.1218 80.1727 78.5384 78.9385 79.7422 77.5104V6.48961C78.5384 5.06151 77.1218 3.82735 75.5422 2.83051V81.1695Z" fill="url(#paint3_linear_36_107)"/>
</g>
<defs>
<linearGradient id="paint0_linear_36_107" x1="79.7699" y1="22.9649" x2="79.7699" y2="29.5715" gradientUnits="userSpaceOnUse">
<stop stop-opacity="0.3"/>
<stop offset="1" stop-color="white" stop-opacity="0"/>
</linearGradient>
<linearGradient id="paint1_linear_36_107" x1="79.7706" y1="43.8473" x2="79.7706" y2="50.9817" gradientUnits="userSpaceOnUse">
<stop stop-opacity="0.2"/>
<stop offset="1" stop-color="white" stop-opacity="0"/>
</linearGradient>
<linearGradient id="paint2_linear_36_107" x1="1039.61" y1="585.112" x2="1039.61" y2="627.588" gradientUnits="userSpaceOnUse">
<stop stop-opacity="0.2"/>
<stop offset="1" stop-color="white" stop-opacity="0"/>
</linearGradient>
<linearGradient id="paint3_linear_36_107" x1="528.798" y1="4703.17" x2="553.998" y2="4703.17" gradientUnits="userSpaceOnUse">
<stop stop-opacity="0.2"/>
<stop offset="1" stop-color="white" stop-opacity="0"/>
</linearGradient>
<clipPath id="clip0_36_107">
<rect width="84" height="84" fill="white"/>
</clipPath>
</defs>
</svg>
