<svg width="84" height="84" viewBox="0 0 84 84" fill="none" xmlns="http://www.w3.org/2000/svg">
<rect width="84" height="84" rx="20" fill="#111144"/>
<g clip-path="url(#clip0_36_246)">
<path d="M59.3282 26.0844C56.086 24.5965 52.6649 23.5345 49.15 22.925C49.1182 22.9197 49.0855 22.9243 49.0564 22.9383C49.0273 22.9523 49.0032 22.9749 48.9875 23.0031C48.5469 23.7844 48.0594 24.8063 47.7188 25.6063C43.9301 25.0313 40.0763 25.0313 36.2875 25.6063C35.9076 24.7151 35.4777 23.846 35 23.0031C34.984 22.9752 34.9599 22.9528 34.9309 22.9389C34.9019 22.925 34.8693 22.9201 34.8375 22.925C31.3219 23.5313 27.9 24.5938 24.6594 26.0844C24.6317 26.095 24.6085 26.1149 24.5938 26.1406C18.1125 35.825 16.3344 45.2719 17.2063 54.6C17.2094 54.6438 17.2375 54.6875 17.2719 54.7156C21.0461 57.5113 25.2675 59.6458 29.7563 61.0281C29.788 61.0381 29.822 61.0378 29.8535 61.0271C29.885 61.0164 29.9122 60.996 29.9313 60.9688C30.8938 59.6563 31.75 58.2719 32.4875 56.8156C32.5029 56.7857 32.5082 56.7515 32.5025 56.7183C32.4969 56.685 32.4807 56.6545 32.4563 56.6313C32.4401 56.616 32.421 56.6043 32.4 56.5969C31.0537 56.0795 29.7497 55.4578 28.5 54.7375C28.4651 54.7177 28.4392 54.6853 28.4275 54.6469C28.4159 54.6085 28.4195 54.5671 28.4375 54.5313C28.4482 54.508 28.4643 54.4876 28.4844 54.4719C28.7469 54.275 29.0094 54.0688 29.2594 53.8625C29.2815 53.8448 29.308 53.8333 29.3361 53.8295C29.3641 53.8256 29.3927 53.8295 29.4188 53.8406C37.6032 57.5781 46.4625 57.5781 54.5469 53.8406C54.5739 53.829 54.6036 53.8248 54.6328 53.8287C54.6619 53.8325 54.6895 53.8442 54.7125 53.8625C54.9625 54.0688 55.225 54.275 55.4875 54.4719C55.5088 54.4874 55.5259 54.508 55.5373 54.5318C55.5486 54.5555 55.5539 54.5818 55.5527 54.6081C55.5515 54.6344 55.5437 54.66 55.5302 54.6826C55.5166 54.7052 55.4977 54.724 55.475 54.7375C54.2282 55.4644 52.9226 56.0853 51.5719 56.5938C51.5504 56.6016 51.5308 56.614 51.5146 56.6302C51.4984 56.6464 51.486 56.666 51.4782 56.6875C51.4709 56.7084 51.468 56.7305 51.4697 56.7525C51.4713 56.7746 51.4774 56.796 51.4875 56.8156C52.2375 58.2688 53.0969 59.6563 54.0407 60.9688C54.0597 60.996 54.087 61.0164 54.1184 61.0271C54.1499 61.0378 54.184 61.0381 54.2157 61.0281C58.7119 59.6501 62.9403 57.5153 66.7188 54.7156C66.7377 54.7025 66.7534 54.6853 66.7648 54.6653C66.7762 54.6453 66.7829 54.623 66.7844 54.6C67.8282 43.8156 65.0375 34.4469 59.3907 26.1438C59.385 26.1301 59.3765 26.1177 59.3657 26.1075C59.3549 26.0972 59.3422 26.0894 59.3282 26.0844ZM33.7094 48.9188C31.2438 48.9188 29.2157 46.6563 29.2157 43.8813C29.2157 41.1031 31.2063 38.8406 33.7094 38.8406C36.2313 38.8406 38.2407 41.1219 38.2032 43.8813C38.2032 46.6563 36.2125 48.9188 33.7094 48.9188ZM50.3219 48.9188C47.8594 48.9188 45.8282 46.6563 45.8282 43.8813C45.8282 41.1031 47.8188 38.8406 50.3219 38.8406C52.8438 38.8406 54.8563 41.1219 54.8157 43.8813C54.8157 46.6563 52.8438 48.9188 50.3219 48.9188Z" fill="white"/>
</g>
<defs>
<clipPath id="clip0_36_246">
<rect width="50" height="50" fill="white" transform="translate(17 17)"/>
</clipPath>
</defs>
</svg>
