<svg width="84" height="84" viewBox="0 0 84 84" fill="none" xmlns="http://www.w3.org/2000/svg">
<rect width="84" height="84" rx="20" fill="#171515"/>
<path d="M42 17C28.1875 17 17 28.1875 17 42C17 53.0625 24.1562 62.4062 34.0938 65.7188C35.3438 65.9375 35.8125 65.1875 35.8125 64.5312C35.8125 63.9375 35.7812 61.9688 35.7812 59.875C29.5 61.0312 27.875 58.3438 27.375 56.9375C27.0938 56.2188 25.875 54 24.8125 53.4062C23.9375 52.9375 22.6875 51.7812 24.7812 51.75C26.75 51.7188 28.1562 53.5625 28.625 54.3125C30.875 58.0938 34.4688 57.0312 35.9062 56.375C36.125 54.75 36.7812 53.6562 37.5 53.0312C31.9375 52.4062 26.125 50.25 26.125 40.6875C26.125 37.9688 27.0938 35.7188 28.6875 33.9688C28.4375 33.3438 27.5625 30.7812 28.9375 27.3438C28.9375 27.3438 31.0312 26.6875 35.8125 29.9062C37.8125 29.3438 39.9375 29.0625 42.0625 29.0625C44.1875 29.0625 46.3125 29.3438 48.3125 29.9062C53.0938 26.6562 55.1875 27.3438 55.1875 27.3438C56.5625 30.7812 55.6875 33.3438 55.4375 33.9688C57.0312 35.7188 58 37.9375 58 40.6875C58 50.2812 52.1562 52.4062 46.5938 53.0312C47.5 53.8125 48.2812 55.3125 48.2812 57.6562C48.2812 61 48.25 63.6875 48.25 64.5312C48.25 65.1875 48.7188 65.9688 49.9688 65.7188C54.932 64.0437 59.2448 60.8542 62.3001 56.5992C65.3553 52.3443 66.9991 47.2382 67 42C67 28.1875 55.8125 17 42 17Z" fill="white"/>
</svg>
