<svg width="84" height="84" viewBox="0 0 84 84" fill="none" xmlns="http://www.w3.org/2000/svg">
<g clip-path="url(#clip0_36_104)">
<path fill-rule="evenodd" clip-rule="evenodd" d="M3.62544e-05 65.8V18.2C-0.00474152 15.8086 0.462754 13.4398 1.3757 11.2295C2.28864 9.0192 3.62906 7.01095 5.32004 5.31998C7.01102 3.629 9.01926 2.28858 11.2295 1.37564C13.4398 0.462693 15.8086 -0.00480255 18.2 -2.47808e-05H65.8C68.1914 -0.00480255 70.5602 0.462693 72.7705 1.37564C74.9808 2.28858 76.989 3.629 78.68 5.31998C80.371 7.01095 81.7114 9.0192 82.6244 11.2295C83.5373 13.4398 84.0048 15.8086 84 18.2V65.8C84.0048 68.1914 83.5373 70.5602 82.6244 72.7705C81.7114 74.9807 80.371 76.989 78.68 78.68C76.989 80.3709 74.9808 81.7114 72.7705 82.6243C70.5602 83.5372 68.1914 84.0047 65.8 84H18.2C13.3738 83.9977 8.74583 82.0795 5.33315 78.6669C1.92047 75.2542 0.00226222 70.6262 3.62544e-05 65.8Z" fill="url(#paint0_linear_36_104)"/>
<path fill-rule="evenodd" clip-rule="evenodd" d="M69.3 60.34C68.6599 60.7044 67.9366 60.8973 67.2 60.9H16.8C16.0623 60.9065 15.3365 60.713 14.7 60.34L31.5 43.54L35.63 47.67C36.4727 48.4811 37.4727 49.1109 38.5683 49.5202C39.664 49.9296 40.8319 50.1099 42 50.05C43.1674 50.1035 44.3336 49.9202 45.4283 49.5112C46.5231 49.1022 47.5237 48.4759 48.37 47.67L52.5 43.54L69.3 60.34ZM70.77 58.8L53.97 42L70.77 25.2C71.1344 25.8401 71.3273 26.5634 71.33 27.3V56.7C71.3953 57.444 71.1971 58.1873 70.77 58.8ZM13.16 58.8C12.7956 58.1599 12.6027 57.4365 12.6 56.7V27.3C12.5934 26.5622 12.787 25.8365 13.16 25.2L29.96 42L13.16 58.8ZM69.3 23.66L46.83 46.13C46.1903 46.7448 45.4322 47.2232 44.6019 47.536C43.7716 47.8489 42.8864 47.9897 42 47.95C41.1136 47.9897 40.2284 47.8489 39.3981 47.536C38.5678 47.2232 37.8098 46.7448 37.17 46.13L14.7 23.66C15.3401 23.2956 16.0635 23.1027 16.8 23.1H67.2C67.9366 23.1027 68.6599 23.2956 69.3 23.66Z" fill="white"/>
</g>
<defs>
<linearGradient id="paint0_linear_36_104" x1="42" y1="-2.47808e-05" x2="42" y2="84.0007" gradientUnits="userSpaceOnUse">
<stop stop-color="#1D6FF2"/>
<stop offset="1" stop-color="#1AC8FC"/>
</linearGradient>
<clipPath id="clip0_36_104">
<rect width="84" height="84" fill="white"/>
</clipPath>
</defs>
</svg>
