<svg width="84" height="84" viewBox="0 0 84 84" fill="none" xmlns="http://www.w3.org/2000/svg">
<path d="M65.8 0H18.2C8.14842 0 0 8.14842 0 18.2V65.8C0 75.8516 8.14842 84 18.2 84H65.8C75.8516 84 84 75.8516 84 65.8V18.2C84 8.14842 75.8516 0 65.8 0Z" fill="url(#paint0_linear_36_211)"/>
<path d="M42.3569 15.057C25.3469 15.057 11.5569 26.341 11.5569 40.257C11.5569 49.105 17.1569 56.882 25.5569 61.376C25.864 61.5277 26.1049 61.7867 26.2339 62.1041C26.3629 62.4214 26.3711 62.775 26.2569 63.098C25.4248 65.1082 24.0863 66.8686 22.3719 68.208C22.2512 68.306 22.1666 68.4413 22.1314 68.5927C22.0962 68.7441 22.1123 68.9029 22.1773 69.044C22.2423 69.1852 22.3524 69.3008 22.4903 69.3725C22.6282 69.4442 22.786 69.4679 22.9389 69.44C26.6007 68.8109 30.0771 67.3764 33.1169 65.24C33.4212 65.013 33.7693 64.8516 34.1392 64.7661C34.5092 64.6805 34.8928 64.6727 35.2659 64.743C37.6065 65.202 39.9857 65.4364 42.3709 65.443C59.3809 65.443 73.1709 54.159 73.1709 40.243C73.1709 26.327 59.3669 15.057 42.3569 15.057Z" fill="#FEFEFE"/>
<defs>
<linearGradient id="paint0_linear_36_211" x1="42" y1="0" x2="42" y2="84" gradientUnits="userSpaceOnUse">
<stop stop-color="#5CF777"/>
<stop offset="1" stop-color="#0DBC29"/>
</linearGradient>
</defs>
</svg>
