<svg width="84" height="84" viewBox="0 0 84 84" fill="none" xmlns="http://www.w3.org/2000/svg">
<g clip-path="url(#clip0_36_221)">
<path d="M18.2 -2.47808e-05H65.8C68.1914 -0.00480255 70.5602 0.462693 72.7705 1.37564C74.9808 2.28858 76.989 3.629 78.68 5.31998C80.371 7.01095 81.7114 9.0192 82.6244 11.2295C83.5373 13.4398 84.0048 15.8086 84 18.2V65.8C84.0048 68.1914 83.5373 70.5602 82.6244 72.7705C81.7114 74.9807 80.371 76.989 78.68 78.68C76.989 80.3709 74.9808 81.7114 72.7705 82.6243C70.5602 83.5372 68.1914 84.0047 65.8 84H18.2C15.8086 84.0047 13.4398 83.5372 11.2295 82.6243C9.01926 81.7114 7.01102 80.3709 5.32004 78.68C3.62906 76.989 2.28864 74.9807 1.3757 72.7705C0.462754 70.5602 -0.00474152 68.1914 3.62544e-05 65.8V18.2C0.00226222 13.3737 1.92047 8.74577 5.33315 5.33309C8.74583 1.92041 13.3738 0.00220118 18.2 -2.47808e-05Z" fill="white"/>
<path fill-rule="evenodd" clip-rule="evenodd" d="M17.9899 15.4H28.7699C29.2129 15.4136 29.6358 15.5877 29.9599 15.89L68.1099 53.55C68.2676 53.7051 68.3923 53.8904 68.4766 54.0949C68.5608 54.2994 68.6027 54.5189 68.5999 54.74V66.01C68.6007 66.3504 68.5343 66.6875 68.4044 67.0021C68.2745 67.3167 68.0837 67.6025 67.8431 67.8432C67.6024 68.0839 67.3166 68.2746 67.002 68.4045C66.6874 68.5344 66.3503 68.6008 66.0099 68.6H55.2999C54.8569 68.5865 54.434 68.4123 54.1099 68.11L15.9599 30.45C15.8022 30.295 15.6775 30.1096 15.5933 29.9051C15.5091 29.7006 15.4671 29.4812 15.4699 29.26V17.99C15.4554 17.6519 15.5101 17.3145 15.6307 16.9983C15.7513 16.6821 15.9352 16.3939 16.1712 16.1514C16.4072 15.9089 16.6902 15.7171 17.003 15.5879C17.3157 15.4587 17.6516 15.3948 17.9899 15.4ZM44.5899 15.4H66.0099C66.3503 15.3992 66.6874 15.4657 67.002 15.5956C67.3166 15.7254 67.6024 15.9162 67.8431 16.1568C68.0837 16.3975 68.2745 16.6833 68.4044 16.9979C68.5343 17.3125 68.6007 17.6497 68.5999 17.99V40.25C66.1584 34.9525 62.8458 30.1019 58.7999 25.9C54.6779 21.6367 49.8757 18.0884 44.5899 15.4ZM39.4099 68.6H17.9899C17.6496 68.6008 17.3124 68.5344 16.9978 68.4045C16.6832 68.2746 16.3974 68.0839 16.1567 67.8432C15.9161 67.6025 15.7253 67.3167 15.5955 67.0021C15.4656 66.6875 15.3991 66.3504 15.3999 66.01V43.75C17.8334 49.0521 21.1469 53.904 25.1999 58.1C29.3543 62.3263 34.15 65.8699 39.4099 68.6Z" fill="url(#paint0_linear_36_221)"/>
</g>
<defs>
<linearGradient id="paint0_linear_36_221" x1="42.002" y1="68.6098" x2="42.002" y2="15.4098" gradientUnits="userSpaceOnUse">
<stop stop-color="#FD355A"/>
<stop offset="1" stop-color="#FD5163"/>
</linearGradient>
<clipPath id="clip0_36_221">
<rect width="84" height="84" fill="white"/>
</clipPath>
</defs>
</svg>
