<svg width="84" height="84" viewBox="0 0 84 84" fill="none" xmlns="http://www.w3.org/2000/svg">
<g clip-path="url(#clip0_36_46)">
<path fill-rule="evenodd" clip-rule="evenodd" d="M65.8 84H18.2C15.8086 84.0047 13.4398 83.5373 11.2295 82.6243C9.01926 81.7114 7.01101 80.3709 5.32004 78.68C3.62906 76.989 2.28864 74.9807 1.3757 72.7705C0.462753 70.5602 -0.00474243 68.1914 3.62684e-05 65.8V18.2C-0.00474243 15.8086 0.462753 13.4398 1.3757 11.2295C2.28864 9.0192 3.62906 7.01095 5.32004 5.31997C7.01101 3.629 9.01926 2.28858 11.2295 1.37563C13.4398 0.462692 15.8086 -0.00480347 18.2 -2.47668e-05H65.8C68.1914 -0.00480347 70.5602 0.462692 72.7705 1.37563C74.9808 2.28858 76.9891 3.629 78.68 5.31997C80.371 7.01095 81.7114 9.0192 82.6244 11.2295C83.5373 13.4398 84.0048 15.8086 84 18.2V65.8C84.0048 68.1914 83.5373 70.5602 82.6244 72.7705C81.7114 74.9807 80.371 76.989 78.68 78.68C76.9891 80.3709 74.9808 81.7114 72.7705 82.6243C70.5602 83.5373 68.1914 84.0047 65.8 84Z" fill="white"/>
<path d="M99.4055 -0.00842285H-12.5945V20.9916H99.4055V-0.00842285Z" fill="url(#paint0_linear_36_46)"/>
<path d="M84.0056 41.2916H0.00561523V42.6916H84.0056V41.2916Z" fill="#C7C7CC"/>
<path d="M84.0056 62.2916H0.00561523V63.6916H84.0056V62.2916Z" fill="#C7C7CC"/>
<path d="M5.24999 26.8016C5.94587 26.8016 6.50999 26.2374 6.50999 25.5416C6.50999 24.8457 5.94587 24.2816 5.24999 24.2816C4.55411 24.2816 3.98999 24.8457 3.98999 25.5416C3.98999 26.2374 4.55411 26.8016 5.24999 26.8016Z" fill="#C7C7CC"/>
<path d="M10.1501 26.8016C10.846 26.8016 11.4101 26.2374 11.4101 25.5416C11.4101 24.8457 10.846 24.2816 10.1501 24.2816C9.45426 24.2816 8.89014 24.8457 8.89014 25.5416C8.89014 26.2374 9.45426 26.8016 10.1501 26.8016Z" fill="#C7C7CC"/>
<path d="M15.05 26.8016C15.7459 26.8016 16.31 26.2374 16.31 25.5416C16.31 24.8457 15.7459 24.2816 15.05 24.2816C14.3542 24.2816 13.79 24.8457 13.79 25.5416C13.79 26.2374 14.3542 26.8016 15.05 26.8016Z" fill="#C7C7CC"/>
<path d="M0.350088 26.8016C1.04597 26.8016 1.61009 26.2374 1.61009 25.5416C1.61009 24.8457 1.04597 24.2816 0.350088 24.2816C-0.345791 24.2816 -0.909912 24.8457 -0.909912 25.5416C-0.909912 26.2374 -0.345791 26.8016 0.350088 26.8016Z" fill="#C7C7CC"/>
<path d="M24.8501 26.8016C25.546 26.8016 26.1101 26.2374 26.1101 25.5416C26.1101 24.8457 25.546 24.2816 24.8501 24.2816C24.1542 24.2816 23.5901 24.8457 23.5901 25.5416C23.5901 26.2374 24.1542 26.8016 24.8501 26.8016Z" fill="#C7C7CC"/>
<path d="M29.75 26.8016C30.4459 26.8016 31.01 26.2374 31.01 25.5416C31.01 24.8457 30.4459 24.2816 29.75 24.2816C29.0541 24.2816 28.49 24.8457 28.49 25.5416C28.49 26.2374 29.0541 26.8016 29.75 26.8016Z" fill="#C7C7CC"/>
<path d="M34.6501 26.8016C35.346 26.8016 35.9101 26.2374 35.9101 25.5416C35.9101 24.8457 35.346 24.2816 34.6501 24.2816C33.9543 24.2816 33.3901 24.8457 33.3901 25.5416C33.3901 26.2374 33.9543 26.8016 34.6501 26.8016Z" fill="#C7C7CC"/>
<path d="M19.9502 26.8016C20.6461 26.8016 21.2102 26.2374 21.2102 25.5416C21.2102 24.8457 20.6461 24.2816 19.9502 24.2816C19.2543 24.2816 18.6902 24.8457 18.6902 25.5416C18.6902 26.2374 19.2543 26.8016 19.9502 26.8016Z" fill="#C7C7CC"/>
<path d="M44.4502 26.8016C45.1461 26.8016 45.7102 26.2374 45.7102 25.5416C45.7102 24.8457 45.1461 24.2816 44.4502 24.2816C43.7543 24.2816 43.1902 24.8457 43.1902 25.5416C43.1902 26.2374 43.7543 26.8016 44.4502 26.8016Z" fill="#C7C7CC"/>
<path d="M49.3501 26.8016C50.046 26.8016 50.6101 26.2374 50.6101 25.5416C50.6101 24.8457 50.046 24.2816 49.3501 24.2816C48.6542 24.2816 48.0901 24.8457 48.0901 25.5416C48.0901 26.2374 48.6542 26.8016 49.3501 26.8016Z" fill="#C7C7CC"/>
<path d="M54.25 26.8016C54.9459 26.8016 55.51 26.2374 55.51 25.5416C55.51 24.8457 54.9459 24.2816 54.25 24.2816C53.5541 24.2816 52.99 24.8457 52.99 25.5416C52.99 26.2374 53.5541 26.8016 54.25 26.8016Z" fill="#C7C7CC"/>
<path d="M39.55 26.8016C40.2459 26.8016 40.81 26.2374 40.81 25.5416C40.81 24.8457 40.2459 24.2816 39.55 24.2816C38.8542 24.2816 38.29 24.8457 38.29 25.5416C38.29 26.2374 38.8542 26.8016 39.55 26.8016Z" fill="#C7C7CC"/>
<path d="M64.05 26.8016C64.7459 26.8016 65.31 26.2374 65.31 25.5416C65.31 24.8457 64.7459 24.2816 64.05 24.2816C63.3542 24.2816 62.79 24.8457 62.79 25.5416C62.79 26.2374 63.3542 26.8016 64.05 26.8016Z" fill="#C7C7CC"/>
<path d="M68.9502 26.8016C69.6461 26.8016 70.2102 26.2374 70.2102 25.5416C70.2102 24.8457 69.6461 24.2816 68.9502 24.2816C68.2543 24.2816 67.6902 24.8457 67.6902 25.5416C67.6902 26.2374 68.2543 26.8016 68.9502 26.8016Z" fill="#C7C7CC"/>
<path d="M73.8501 26.8016C74.546 26.8016 75.1101 26.2374 75.1101 25.5416C75.1101 24.8457 74.546 24.2816 73.8501 24.2816C73.1542 24.2816 72.5901 24.8457 72.5901 25.5416C72.5901 26.2374 73.1542 26.8016 73.8501 26.8016Z" fill="#C7C7CC"/>
<path d="M59.1501 26.8016C59.846 26.8016 60.4101 26.2374 60.4101 25.5416C60.4101 24.8457 59.846 24.2816 59.1501 24.2816C58.4543 24.2816 57.8901 24.8457 57.8901 25.5416C57.8901 26.2374 58.4543 26.8016 59.1501 26.8016Z" fill="#C7C7CC"/>
<path d="M78.75 26.8016C79.4459 26.8016 80.01 26.2374 80.01 25.5416C80.01 24.8457 79.4459 24.2816 78.75 24.2816C78.0541 24.2816 77.49 24.8457 77.49 25.5416C77.49 26.2374 78.0541 26.8016 78.75 26.8016Z" fill="#C7C7CC"/>
<path d="M83.6501 26.8016C84.346 26.8016 84.9101 26.2374 84.9101 25.5416C84.9101 24.8457 84.346 24.2816 83.6501 24.2816C82.9543 24.2816 82.3901 24.8457 82.3901 25.5416C82.3901 26.2374 82.9543 26.8016 83.6501 26.8016Z" fill="#C7C7CC"/>
<path d="M84 20.9916H0V23.0916H84V20.9916Z" fill="url(#paint1_linear_36_46)"/>
</g>
<defs>
<linearGradient id="paint0_linear_36_46" x1="43.3859" y1="-0.0105229" x2="43.3859" y2="20.9895" gradientUnits="userSpaceOnUse">
<stop stop-color="#FFDF60"/>
<stop offset="1" stop-color="#FFCD01"/>
</linearGradient>
<linearGradient id="paint1_linear_36_46" x1="42" y1="20.9916" x2="42" y2="23.0916" gradientUnits="userSpaceOnUse">
<stop stop-opacity="0.3"/>
<stop offset="1" stop-color="white" stop-opacity="0"/>
</linearGradient>
<clipPath id="clip0_36_46">
<rect width="84" height="84" fill="white"/>
</clipPath>
</defs>
</svg>
