<svg width="84" height="84" viewBox="0 0 84 84" fill="none" xmlns="http://www.w3.org/2000/svg">
<g clip-path="url(#clip0_36_74)">
<path fill-rule="evenodd" clip-rule="evenodd" d="M65.8 84H18.2C15.8086 84.0047 13.4398 83.5372 11.2295 82.6243C9.01926 81.7114 7.01102 80.3709 5.32004 78.68C3.62906 76.989 2.28864 74.9807 1.3757 72.7705C0.462754 70.5602 -0.00474152 68.1914 3.62544e-05 65.8V18.2C-0.00474152 15.8086 0.462754 13.4398 1.3757 11.2295C2.28864 9.0192 3.62906 7.01095 5.32004 5.31998C7.01102 3.629 9.01926 2.28858 11.2295 1.37564C13.4398 0.462693 15.8086 -0.00480255 18.2 -2.47808e-05H65.8C68.1914 -0.00480255 70.5602 0.462693 72.7705 1.37564C74.9808 2.28858 76.989 3.629 78.68 5.31998C80.371 7.01095 81.7114 9.0192 82.6244 11.2295C83.5373 13.4398 84.0048 15.8086 84 18.2V65.8C84.0048 68.1914 83.5373 70.5602 82.6244 72.7705C81.7114 74.9807 80.371 76.989 78.68 78.68C76.989 80.3709 74.9808 81.7114 72.7705 82.6243C70.5602 83.5372 68.1914 84.0047 65.8 84Z" fill="white"/>
<path fill-rule="evenodd" clip-rule="evenodd" d="M16.5753 30.9033H28.515C31.4927 30.912 34.3459 32.0987 36.4515 34.2042C38.557 36.3098 39.7437 39.163 39.7524 42.1407C39.7437 45.1183 38.557 47.9716 36.4515 50.0771C34.3459 52.1826 31.4927 53.3694 28.515 53.3781H16.5753C13.5976 53.3694 10.7444 52.1826 8.63888 50.0771C6.53334 47.9716 5.3466 45.1183 5.33789 42.1407C5.3466 39.163 6.53334 36.3098 8.63887 34.2042C10.7444 32.0987 13.5976 30.912 16.5753 30.9033Z" fill="url(#paint0_linear_36_74)" fill-opacity="0.25"/>
<path fill-rule="evenodd" clip-rule="evenodd" d="M55.204 30.9033H67.1437C70.1214 30.912 72.9746 32.0987 75.0801 34.2043C77.1856 36.3098 78.3724 39.163 78.3811 42.1407C78.3724 45.1183 77.1856 47.9715 75.0801 50.0771C72.9746 52.1826 70.1214 53.3693 67.1437 53.3781H55.204C52.2263 53.3694 49.3731 52.1826 47.2675 50.0771C45.162 47.9715 43.9753 45.1183 43.9666 42.1407C43.9753 39.163 45.162 36.3098 47.2675 34.2042C49.3731 32.0987 52.2263 30.912 55.204 30.9033Z" fill="url(#paint1_linear_36_74)" fill-opacity="0.25"/>
<path fill-rule="evenodd" clip-rule="evenodd" d="M30.6223 28.7962V16.8565C30.631 13.8789 31.8177 11.0257 33.9233 8.92013C36.0288 6.81459 38.882 5.62785 41.8597 5.61914C44.8373 5.62784 47.6906 6.81458 49.7961 8.92011C51.9016 11.0257 53.0884 13.8789 53.0971 16.8565V28.7963C53.0884 31.7739 51.9016 34.6272 49.7961 36.7327C47.6906 38.8383 44.8374 40.025 41.8597 40.0337C38.882 40.025 36.0288 38.8382 33.9233 36.7327C31.8178 34.6271 30.631 31.7739 30.6223 28.7962Z" fill="url(#paint2_linear_36_74)" fill-opacity="0.25"/>
<path fill-rule="evenodd" clip-rule="evenodd" d="M53.0971 55.4851V67.4248C53.0884 70.4025 51.9016 73.2557 49.7961 75.3612C47.6906 77.4668 44.8373 78.6535 41.8597 78.6622C38.882 78.6535 36.0288 77.4668 33.9233 75.3612C31.8178 73.2557 30.631 70.4025 30.6223 67.4248V55.4851C30.631 52.5074 31.8178 49.6542 33.9233 47.5487C36.0288 45.4431 38.882 44.2564 41.8597 44.2477C44.8373 44.2564 47.6906 45.4431 49.7961 47.5487C51.9016 49.6542 53.0884 52.5074 53.0971 55.4851Z" fill="url(#paint3_linear_36_74)" fill-opacity="0.25"/>
<path fill-rule="evenodd" clip-rule="evenodd" d="M24.4415 40.5955L16.0134 32.1675C13.9213 30.0559 12.7476 27.2036 12.7476 24.2311C12.7476 21.2585 13.9213 18.4063 16.0134 16.2947C18.125 14.2025 20.9773 13.0288 23.9499 13.0288C26.9224 13.0288 29.7747 14.2025 31.8863 16.2947L40.3144 24.7227C42.4065 26.8343 43.5802 29.6866 43.5802 32.6591C43.5802 35.6316 42.4065 38.4839 40.3144 40.5955C39.2858 41.6618 38.0529 42.5098 36.6893 43.089C35.3257 43.6682 33.8594 43.9667 32.3779 43.9667C30.8964 43.9667 29.4301 43.6682 28.0665 43.089C26.7029 42.5098 25.47 41.6618 24.4415 40.5955Z" fill="url(#paint4_linear_36_74)" fill-opacity="0.25"/>
<path fill-rule="evenodd" clip-rule="evenodd" d="M59.2777 43.6858L67.7057 52.1139C69.7978 54.2255 70.9716 57.0778 70.9716 60.0503C70.9716 63.0228 69.7978 65.8751 67.7057 67.9867C65.5941 70.0788 62.7418 71.2526 59.7693 71.2526C56.7967 71.2526 53.9444 70.0788 51.8328 67.9867L43.4048 59.5586C41.3126 57.447 40.1389 54.5947 40.1389 51.6222C40.1389 48.6497 41.3126 45.7974 43.4048 43.6858C44.4333 42.6195 45.6662 41.7715 47.0298 41.1922C48.3934 40.613 49.8597 40.3145 51.3412 40.3145C52.8227 40.3145 54.289 40.613 55.6526 41.1922C57.0162 41.7715 58.2491 42.6195 59.2777 43.6858Z" fill="url(#paint5_linear_36_74)" fill-opacity="0.25"/>
<path fill-rule="evenodd" clip-rule="evenodd" d="M43.4046 24.7227L51.8327 16.2946C53.9443 14.2025 56.7966 13.0287 59.7691 13.0287C62.7416 13.0287 65.5939 14.2025 67.7056 16.2946C69.7977 18.4062 70.9714 21.2585 70.9714 24.231C70.9714 27.2035 69.7977 30.0558 67.7056 32.1674L59.2775 40.5955C57.1659 42.6876 54.3136 43.8613 51.3411 43.8613C48.3685 43.8613 45.5162 42.6876 43.4046 40.5955C42.3384 39.5669 41.4904 38.334 40.9112 36.9704C40.332 35.6069 40.0334 34.1406 40.0334 32.6591C40.0334 31.1776 40.332 29.7113 40.9112 28.3477C41.4904 26.9841 42.3384 25.7513 43.4046 24.7227Z" fill="url(#paint6_linear_36_74)" fill-opacity="0.25"/>
<path fill-rule="evenodd" clip-rule="evenodd" d="M40.3144 59.5586L31.8863 67.9867C29.7747 70.0788 26.9224 71.2525 23.9499 71.2525C20.9773 71.2525 18.125 70.0788 16.0134 67.9867C13.9213 65.8751 12.7476 63.0228 12.7476 60.0503C12.7476 57.0777 13.9213 54.2255 16.0134 52.1138L24.4415 43.6858C26.5531 41.5937 29.4054 40.4199 32.3779 40.4199C35.3504 40.4199 38.2027 41.5937 40.3144 43.6858C41.3806 44.7144 42.2287 45.9472 42.8079 47.3108C43.3871 48.6744 43.6857 50.1407 43.6857 51.6222C43.6857 53.1037 43.3871 54.57 42.8079 55.9336C42.2287 57.2972 41.3806 58.53 40.3144 59.5586Z" fill="url(#paint7_linear_36_74)" fill-opacity="0.25"/>
<g style="mix-blend-mode:multiply">
<path fill-rule="evenodd" clip-rule="evenodd" d="M16.5753 30.9033H28.515C31.4927 30.912 34.3459 32.0987 36.4515 34.2042C38.557 36.3098 39.7437 39.163 39.7524 42.1407C39.7437 45.1183 38.557 47.9716 36.4515 50.0771C34.3459 52.1826 31.4927 53.3694 28.515 53.3781H16.5753C13.5976 53.3694 10.7444 52.1826 8.63888 50.0771C6.53334 47.9716 5.3466 45.1183 5.33789 42.1407C5.3466 39.163 6.53334 36.3098 8.63887 34.2042C10.7444 32.0987 13.5976 30.912 16.5753 30.9033Z" fill="#D783A6"/>
</g>
<g style="mix-blend-mode:multiply">
<path fill-rule="evenodd" clip-rule="evenodd" d="M55.204 30.9033H67.1437C70.1214 30.912 72.9746 32.0987 75.0801 34.2043C77.1856 36.3098 78.3724 39.163 78.3811 42.1407C78.3724 45.1183 77.1856 47.9715 75.0801 50.0771C72.9746 52.1826 70.1214 53.3693 67.1437 53.3781H55.204C52.2263 53.3694 49.3731 52.1826 47.2675 50.0771C45.162 47.9715 43.9753 45.1183 43.9666 42.1407C43.9753 39.163 45.162 36.3098 47.2675 34.2042C49.3731 32.0987 52.2263 30.912 55.204 30.9033Z" fill="#A3D063"/>
</g>
<g style="mix-blend-mode:multiply">
<path fill-rule="evenodd" clip-rule="evenodd" d="M53.0971 16.8565V28.7963C53.0884 31.7739 51.9016 34.6272 49.7961 36.7327C47.6906 38.8383 44.8374 40.025 41.8597 40.0337C38.882 40.025 36.0288 38.8382 33.9233 36.7327C31.8177 34.6272 30.631 31.7739 30.6223 28.7963V16.8565C30.631 13.8789 31.8177 11.0257 33.9233 8.92013C36.0288 6.81459 38.882 5.62785 41.8597 5.61914C44.8373 5.62784 47.6906 6.81458 49.7961 8.92011C51.9016 11.0257 53.0884 13.8789 53.0971 16.8565Z" fill="#FBB230"/>
</g>
<g style="mix-blend-mode:multiply">
<path fill-rule="evenodd" clip-rule="evenodd" d="M53.0971 55.4851V67.4248C53.0884 70.4025 51.9016 73.2557 49.7961 75.3612C47.6906 77.4668 44.8373 78.6535 41.8597 78.6622C38.882 78.6535 36.0288 77.4668 33.9233 75.3612C31.8178 73.2557 30.631 70.4025 30.6223 67.4248V55.4851C30.631 52.5074 31.8178 49.6542 33.9233 47.5487C36.0288 45.4431 38.882 44.2564 41.8597 44.2477C44.8373 44.2564 47.6906 45.4431 49.7961 47.5487C51.9016 49.6542 53.0884 52.5074 53.0971 55.4851Z" fill="#79ABDB"/>
</g>
<g style="mix-blend-mode:multiply">
<path fill-rule="evenodd" clip-rule="evenodd" d="M31.8863 16.2946L40.3144 24.7227C42.4065 26.8343 43.5802 29.6865 43.5802 32.6591C43.5802 35.6316 42.4065 38.4839 40.3144 40.5955C38.2027 42.6876 35.3504 43.8613 32.3779 43.8613C29.4054 43.8613 26.5531 42.6876 24.4415 40.5955L16.0134 32.1674C13.9213 30.0558 12.7476 27.2035 12.7476 24.231C12.7476 21.2585 13.9213 18.4062 16.0134 16.2946C18.125 14.2025 20.9773 13.0288 23.9498 13.0287C26.9224 13.0287 29.7747 14.2025 31.8863 16.2946Z" fill="#F3775E"/>
</g>
<g style="mix-blend-mode:multiply">
<path fill-rule="evenodd" clip-rule="evenodd" d="M59.2777 43.6858L67.7057 52.1139C69.7978 54.2255 70.9716 57.0778 70.9716 60.0503C70.9716 63.0228 69.7978 65.8751 67.7057 67.9867C65.5941 70.0788 62.7418 71.2526 59.7693 71.2526C56.7967 71.2526 53.9444 70.0788 51.8328 67.9867L43.4048 59.5586C41.3126 57.447 40.1389 54.5947 40.1389 51.6222C40.1389 48.6497 41.3126 45.7974 43.4048 43.6858C44.4333 42.6195 45.6662 41.7715 47.0298 41.1922C48.3934 40.613 49.8597 40.3145 51.3412 40.3145C52.8227 40.3145 54.289 40.613 55.6526 41.1922C57.0162 41.7715 58.2491 42.6195 59.2777 43.6858Z" fill="#6CBFAA"/>
</g>
<g style="mix-blend-mode:multiply">
<path fill-rule="evenodd" clip-rule="evenodd" d="M67.7057 32.1674L59.2777 40.5955C57.166 42.6876 54.3137 43.8613 51.3412 43.8613C48.3687 43.8613 45.5164 42.6876 43.4048 40.5955C41.3126 38.4839 40.1389 35.6316 40.1389 32.6591C40.1389 29.6866 41.3126 26.8343 43.4048 24.7227L51.8328 16.2946C53.9444 14.2025 56.7967 13.0287 59.7693 13.0287C62.7418 13.0287 65.5941 14.2025 67.7057 16.2946C69.7978 18.4062 70.9716 21.2585 70.9716 24.231C70.9716 27.2035 69.7978 30.0558 67.7057 32.1674Z" fill="#EDE12C"/>
</g>
<g style="mix-blend-mode:multiply">
<path fill-rule="evenodd" clip-rule="evenodd" d="M40.3144 59.5586L31.8863 67.9867C29.7747 70.0788 26.9224 71.2525 23.9499 71.2525C20.9773 71.2525 18.125 70.0788 16.0134 67.9867C13.9213 65.8751 12.7476 63.0228 12.7476 60.0503C12.7476 57.0777 13.9213 54.2255 16.0134 52.1138L24.4415 43.6858C26.5531 41.5937 29.4054 40.4199 32.3779 40.4199C35.3504 40.4199 38.2027 41.5937 40.3144 43.6858C41.3806 44.7144 42.2287 45.9472 42.8079 47.3108C43.3871 48.6744 43.6857 50.1407 43.6857 51.6222C43.6857 53.1037 43.3871 54.57 42.8079 55.9336C42.2287 57.2972 41.3806 58.53 40.3144 59.5586Z" fill="#AC8DC1"/>
</g>
<g style="mix-blend-mode:overlay">
<path style="mix-blend-mode:overlay" fill-rule="evenodd" clip-rule="evenodd" d="M16.5753 30.9033H28.515C31.4927 30.912 34.3459 32.0987 36.4515 34.2042C38.557 36.3098 39.7437 39.163 39.7524 42.1407C39.7437 45.1183 38.557 47.9716 36.4515 50.0771C34.3459 52.1826 31.4927 53.3694 28.515 53.3781H16.5753C13.5976 53.3694 10.7444 52.1826 8.63887 50.0771C6.53333 47.9716 5.3466 45.1183 5.33789 42.1407C5.34659 39.163 6.53333 36.3098 8.63887 34.2042C10.7444 32.0987 13.5976 30.912 16.5753 30.9033Z" fill="url(#paint8_linear_36_74)" fill-opacity="0.25"/>
<path style="mix-blend-mode:overlay" fill-rule="evenodd" clip-rule="evenodd" d="M55.204 30.9033H67.1437C70.1214 30.912 72.9746 32.0987 75.0801 34.2042C77.1856 36.3098 78.3724 39.163 78.3811 42.1407C78.3724 45.1183 77.1856 47.9715 75.0801 50.0771C72.9746 52.1826 70.1214 53.3694 67.1437 53.3781H55.204C52.2263 53.3694 49.3731 52.1826 47.2675 50.0771C45.162 47.9716 43.9753 45.1183 43.9666 42.1407C43.9753 39.163 45.162 36.3098 47.2675 34.2042C49.3731 32.0987 52.2263 30.912 55.204 30.9033Z" fill="url(#paint9_linear_36_74)" fill-opacity="0.25"/>
<path style="mix-blend-mode:overlay" fill-rule="evenodd" clip-rule="evenodd" d="M30.6221 28.7962V16.8565C30.6308 13.8788 31.8175 11.0256 33.923 8.92007C36.0286 6.81453 38.8818 5.62779 41.8594 5.61908C44.8371 5.62778 47.6903 6.81451 49.7959 8.92005C51.9014 11.0256 53.0881 13.8788 53.0968 16.8565V28.7962C53.0881 31.7739 51.9014 34.6271 49.7959 36.7327C47.6903 38.8382 44.8371 40.0249 41.8594 40.0336C38.8818 40.0249 36.0286 38.8382 33.923 36.7326C31.8175 34.6271 30.6308 31.7739 30.6221 28.7962Z" fill="url(#paint10_linear_36_74)" fill-opacity="0.25"/>
<path style="mix-blend-mode:overlay" fill-rule="evenodd" clip-rule="evenodd" d="M53.0968 55.4851V67.4248C53.0881 70.4025 51.9014 73.2557 49.7959 75.3613C47.6903 77.4668 44.8371 78.6535 41.8594 78.6622C38.8818 78.6535 36.0286 77.4668 33.923 75.3612C31.8175 73.2557 30.6308 70.4025 30.6221 67.4248V55.4851C30.6308 52.5074 31.8175 49.6542 33.923 47.5487C36.0286 45.4431 38.8818 44.2564 41.8594 44.2477C44.8371 44.2564 47.6903 45.4432 49.7958 47.5487C51.9014 49.6542 53.0881 52.5074 53.0968 55.4851Z" fill="url(#paint11_linear_36_74)" fill-opacity="0.25"/>
<path style="mix-blend-mode:overlay" fill-rule="evenodd" clip-rule="evenodd" d="M24.4415 40.5955L16.0134 32.1675C13.9213 30.0559 12.7476 27.2036 12.7476 24.2311C12.7476 21.2585 13.9213 18.4063 16.0134 16.2946C18.125 14.2025 20.9773 13.0288 23.9499 13.0288C26.9224 13.0288 29.7747 14.2025 31.8863 16.2946L40.3144 24.7227C42.4065 26.8343 43.5802 29.6866 43.5802 32.6591C43.5802 35.6316 42.4065 38.4839 40.3144 40.5955C39.2858 41.6617 38.0529 42.5098 36.6893 43.089C35.3257 43.6682 33.8594 43.9667 32.3779 43.9667C30.8964 43.9667 29.4301 43.6682 28.0665 43.089C26.7029 42.5098 25.4701 41.6617 24.4415 40.5955Z" fill="url(#paint12_linear_36_74)" fill-opacity="0.25"/>
<path style="mix-blend-mode:overlay" fill-rule="evenodd" clip-rule="evenodd" d="M59.1368 43.6857L67.5648 52.1138C69.657 54.2254 70.8307 57.0777 70.8307 60.0502C70.8307 63.0227 69.657 65.875 67.5648 67.9866C65.4532 70.0787 62.6009 71.2525 59.6284 71.2525C56.6559 71.2525 53.8036 70.0787 51.6919 67.9866L43.2639 59.5586C41.1718 57.447 39.998 54.5947 39.998 51.6222C39.998 48.6496 41.1718 45.7973 43.2639 43.6857C44.2925 42.6195 45.5254 41.7714 46.8889 41.1922C48.2525 40.613 49.7188 40.3145 51.2003 40.3145C52.6818 40.3145 54.1482 40.613 55.5117 41.1922C56.8753 41.7714 58.1082 42.6195 59.1368 43.6857Z" fill="url(#paint13_linear_36_74)" fill-opacity="0.25"/>
<path style="mix-blend-mode:overlay" fill-rule="evenodd" clip-rule="evenodd" d="M43.2641 24.7226L51.6922 16.2946C53.8038 14.2025 56.6561 13.0287 59.6286 13.0287C62.6012 13.0287 65.4535 14.2025 67.5651 16.2946C69.6572 18.4062 70.8309 21.2585 70.8309 24.231C70.8309 27.2035 69.6572 30.0558 67.5651 32.1674L59.137 40.5954C57.0254 42.6876 54.1731 43.8613 51.2006 43.8613C48.2281 43.8613 45.3758 42.6876 43.2641 40.5954C41.1719 38.4839 39.998 35.6316 39.998 32.659C39.998 29.6865 41.1719 26.8342 43.2641 24.7226Z" fill="url(#paint14_linear_36_74)" fill-opacity="0.25"/>
<path style="mix-blend-mode:overlay" fill-rule="evenodd" clip-rule="evenodd" d="M40.3141 59.5586L31.8861 67.9867C29.7744 70.0788 26.9221 71.2525 23.9496 71.2525C20.9771 71.2525 18.1248 70.0788 16.0132 67.9867C13.921 65.8751 12.7473 63.0228 12.7473 60.0503C12.7473 57.0778 13.921 54.2255 16.0132 52.1139L24.4412 43.6858C26.5528 41.5937 29.4051 40.42 32.3777 40.42C35.3502 40.42 38.2025 41.5937 40.3141 43.6858C42.4063 45.7974 43.5801 48.6497 43.5801 51.6222C43.5801 54.5948 42.4063 57.4471 40.3141 59.5586Z" fill="url(#paint15_linear_36_74)" fill-opacity="0.25"/>
</g>
<g style="mix-blend-mode:darken">
<path fill-rule="evenodd" clip-rule="evenodd" d="M30.9031 31.1842C33.0049 31.6354 34.9316 32.684 36.4517 34.2041C37.9718 35.7242 39.0204 37.6509 39.4716 39.7527C37.3596 39.3241 35.4206 38.2829 33.8968 36.759C32.3729 35.2352 31.3317 33.2962 30.9031 31.1842Z" fill="#D783A6"/>
</g>
<g style="mix-blend-mode:darken">
<path fill-rule="evenodd" clip-rule="evenodd" d="M44.2476 44.5286C44.6987 46.6305 45.7473 48.5572 47.2674 50.0773C48.7875 51.5974 50.7142 52.646 52.816 53.0972C52.3875 50.9852 51.3463 49.0462 49.8224 47.5223C48.2986 45.9984 46.3596 44.9572 44.2476 44.5286ZM44.2476 39.7528C44.6987 37.6509 45.7473 35.7242 47.2674 34.2041C48.7875 32.684 50.7142 31.6354 52.816 31.1842C52.3647 33.286 51.3161 35.2127 49.796 36.7327C48.276 38.2527 46.3493 39.3014 44.2476 39.7528ZM30.9032 53.0972C31.3543 50.9953 32.4029 49.0686 33.923 47.5485C35.443 46.0284 37.3698 44.9798 39.4716 44.5286C39.0203 46.6304 37.9716 48.5571 36.4516 50.0771C34.9316 51.5971 33.0049 52.6459 30.9032 53.0972ZM26.2678 42.1407C28.0913 40.9713 30.2119 40.3497 32.3781 40.3497C34.5443 40.3497 36.665 40.9713 38.4884 42.1407C36.665 43.3101 34.5443 43.9318 32.3781 43.9318C30.2119 43.9318 28.0912 43.3101 26.2678 42.1407ZM45.2309 42.1407C47.0544 43.3101 49.1751 43.9316 51.3412 43.9316C53.5074 43.9316 55.6281 43.3101 57.4515 42.1407C55.6281 40.9712 53.5074 40.3496 51.3412 40.3496C49.175 40.3496 47.0543 40.9712 45.2309 42.1407ZM41.8597 38.7695C40.6903 36.946 40.0688 34.8253 40.0688 32.6591C40.0688 30.4929 40.6903 28.3722 41.8597 26.5488C43.0291 28.3722 43.6507 30.4929 43.6507 32.6591C43.6507 34.8253 43.0291 36.946 41.8597 38.7695ZM41.8597 57.7326C40.6903 55.9091 40.0688 53.7884 40.0688 51.6222C40.0688 49.456 40.6903 47.3353 41.8597 45.5119C43.0291 47.3353 43.6507 49.456 43.6507 51.6222C43.6507 53.7884 43.0291 55.9092 41.8597 57.7326Z" fill="#D783A6"/>
</g>
</g>
<defs>
<linearGradient id="paint0_linear_36_74" x1="5.34264" y1="42.1435" x2="39.7455" y2="42.1435" gradientUnits="userSpaceOnUse">
<stop stop-color="white" stop-opacity="0"/>
<stop offset="1"/>
</linearGradient>
<linearGradient id="paint1_linear_36_74" x1="-455762" y1="435199" x2="-457453" y2="435199" gradientUnits="userSpaceOnUse">
<stop stop-color="white" stop-opacity="0"/>
<stop offset="1"/>
</linearGradient>
<linearGradient id="paint2_linear_36_74" x1="-698593" y1="337201" x2="-698593" y2="338306" gradientUnits="userSpaceOnUse">
<stop stop-color="white" stop-opacity="0"/>
<stop offset="1"/>
</linearGradient>
<linearGradient id="paint3_linear_36_74" x1="-592620" y1="-281926" x2="-592620" y2="-283031" gradientUnits="userSpaceOnUse">
<stop stop-color="white" stop-opacity="0"/>
<stop offset="1"/>
</linearGradient>
<linearGradient id="paint4_linear_36_74" x1="-68723.5" y1="-749705" x2="-67651.5" y2="-750777" gradientUnits="userSpaceOnUse">
<stop stop-color="white" stop-opacity="0"/>
<stop offset="1"/>
</linearGradient>
<linearGradient id="paint5_linear_36_74" x1="126709" y1="704436" x2="125637" y2="705509" gradientUnits="userSpaceOnUse">
<stop stop-color="white" stop-opacity="0"/>
<stop offset="1"/>
</linearGradient>
<linearGradient id="paint6_linear_36_74" x1="-761819" y1="144333" x2="-762894" y2="143258" gradientUnits="userSpaceOnUse">
<stop stop-color="white" stop-opacity="0"/>
<stop offset="1"/>
</linearGradient>
<linearGradient id="paint7_linear_36_74" x1="663945" y1="-46732.4" x2="665021" y2="-45690.8" gradientUnits="userSpaceOnUse">
<stop stop-color="white" stop-opacity="0"/>
<stop offset="1"/>
</linearGradient>
<linearGradient id="paint8_linear_36_74" x1="-19139.6" y1="-28072.6" x2="-19070.5" y2="-28072.6" gradientUnits="userSpaceOnUse">
<stop stop-color="white" stop-opacity="0"/>
<stop offset="1"/>
</linearGradient>
<linearGradient id="paint9_linear_36_74" x1="-455764" y1="435199" x2="-457456" y2="435199" gradientUnits="userSpaceOnUse">
<stop stop-color="white" stop-opacity="0"/>
<stop offset="1"/>
</linearGradient>
<linearGradient id="paint10_linear_36_74" x1="-698593" y1="337201" x2="-698593" y2="338306" gradientUnits="userSpaceOnUse">
<stop stop-color="white" stop-opacity="0"/>
<stop offset="1"/>
</linearGradient>
<linearGradient id="paint11_linear_36_74" x1="-592620" y1="-281926" x2="-592620" y2="-283031" gradientUnits="userSpaceOnUse">
<stop stop-color="white" stop-opacity="0"/>
<stop offset="1"/>
</linearGradient>
<linearGradient id="paint12_linear_36_74" x1="-68722.7" y1="-749704" x2="-67650.7" y2="-750776" gradientUnits="userSpaceOnUse">
<stop stop-color="white" stop-opacity="0"/>
<stop offset="1"/>
</linearGradient>
<linearGradient id="paint13_linear_36_74" x1="126707" y1="704442" x2="125635" y2="705514" gradientUnits="userSpaceOnUse">
<stop stop-color="white" stop-opacity="0"/>
<stop offset="1"/>
</linearGradient>
<linearGradient id="paint14_linear_36_74" x1="-760758" y1="145386" x2="-761830" y2="144314" gradientUnits="userSpaceOnUse">
<stop stop-color="white" stop-opacity="0"/>
<stop offset="1"/>
</linearGradient>
<linearGradient id="paint15_linear_36_74" x1="662895" y1="-47780.8" x2="663967" y2="-46742.7" gradientUnits="userSpaceOnUse">
<stop stop-color="white" stop-opacity="0"/>
<stop offset="1"/>
</linearGradient>
<clipPath id="clip0_36_74">
<rect width="84" height="84" fill="white"/>
</clipPath>
</defs>
</svg>
