<svg width="84" height="84" viewBox="0 0 84 84" fill="none" xmlns="http://www.w3.org/2000/svg">
<g clip-path="url(#clip0_51_29)">
<path d="M18.2 -2.47808e-05H65.8C68.1914 -0.00480255 70.5602 0.462693 72.7705 1.37564C74.9808 2.28858 76.989 3.629 78.68 5.31998C80.371 7.01095 81.7114 9.0192 82.6244 11.2295C83.5373 13.4398 84.0048 15.8086 84 18.2V65.8C84.0048 68.1914 83.5373 70.5602 82.6244 72.7705C81.7114 74.9807 80.371 76.989 78.68 78.68C76.989 80.3709 74.9808 81.7114 72.7705 82.6243C70.5602 83.5372 68.1914 84.0047 65.8 84H18.2C15.8086 84.0047 13.4398 83.5372 11.2295 82.6243C9.01927 81.7114 7.01102 80.3709 5.32004 78.68C3.62906 76.989 2.28864 74.9807 1.3757 72.7705C0.462756 70.5602 -0.00474061 68.1914 3.62403e-05 65.8V18.2C0.0141544 13.3774 1.93618 8.75633 5.34629 5.34623C8.75639 1.93612 13.3774 0.0140933 18.2 -2.47808e-05Z" fill="white"/>
<path d="M14.6999 27.3C18.1793 27.3 20.9999 24.4794 20.9999 21C20.9999 17.5206 18.1793 14.7 14.6999 14.7C11.2205 14.7 8.3999 17.5206 8.3999 21C8.3999 24.4794 11.2205 27.3 14.6999 27.3Z" stroke="#196AFF"/>
<path d="M14.7 25.2C17.0196 25.2 18.9 23.3196 18.9 21C18.9 18.6804 17.0196 16.8 14.7 16.8C12.3804 16.8 10.5 18.6804 10.5 21C10.5 23.3196 12.3804 25.2 14.7 25.2Z" fill="#196AFF"/>
<path d="M14.6999 48.3C18.1793 48.3 20.9999 45.4794 20.9999 42C20.9999 38.5206 18.1793 35.7 14.6999 35.7C11.2205 35.7 8.3999 38.5206 8.3999 42C8.3999 45.4794 11.2205 48.3 14.6999 48.3Z" stroke="#F22D22"/>
<path d="M14.7 46.2C17.0196 46.2 18.9 44.3196 18.9 42C18.9 39.6804 17.0196 37.8 14.7 37.8C12.3804 37.8 10.5 39.6804 10.5 42C10.5 44.3196 12.3804 46.2 14.7 46.2Z" fill="#F22D22"/>
<path d="M14.6999 69.3C18.1793 69.3 20.9999 66.4794 20.9999 63C20.9999 59.5206 18.1793 56.7 14.6999 56.7C11.2205 56.7 8.3999 59.5206 8.3999 63C8.3999 66.4794 11.2205 69.3 14.6999 69.3Z" stroke="#FF9500"/>
<path d="M14.7 67.2C17.0196 67.2 18.9 65.3196 18.9 63C18.9 60.6804 17.0196 58.8 14.7 58.8C12.3804 58.8 10.5 60.6804 10.5 63C10.5 65.3196 12.3804 67.2 14.7 67.2Z" fill="#FF9500"/>
<path fill-rule="evenodd" clip-rule="evenodd" d="M30.8001 20.3H72.8001C72.8935 20.2943 72.987 20.3086 73.0745 20.3418C73.162 20.3749 73.2414 20.4263 73.3076 20.4925C73.3737 20.5586 73.4251 20.6381 73.4583 20.7256C73.4915 20.813 73.5057 20.9066 73.5001 21C73.5057 21.0934 73.4915 21.1869 73.4583 21.2744C73.4251 21.3619 73.3737 21.4413 73.3076 21.5075C73.2414 21.5736 73.162 21.625 73.0745 21.6582C72.987 21.6914 72.8935 21.7056 72.8001 21.7H30.8001C30.7067 21.7056 30.6132 21.6914 30.5257 21.6582C30.4382 21.625 30.3587 21.5736 30.2926 21.5075C30.2264 21.4413 30.175 21.3619 30.1419 21.2744C30.1087 21.1869 30.0944 21.0934 30.1001 21C30.1124 20.8184 30.1901 20.6474 30.3188 20.5187C30.4475 20.39 30.6185 20.3123 30.8001 20.3Z" fill="#C7C7CC"/>
<path fill-rule="evenodd" clip-rule="evenodd" d="M30.8001 41.3H72.8001C72.8935 41.2944 72.987 41.3086 73.0745 41.3418C73.162 41.375 73.2414 41.4264 73.3076 41.4925C73.3737 41.5587 73.4251 41.6381 73.4583 41.7256C73.4915 41.8131 73.5057 41.9066 73.5001 42C73.5057 42.0934 73.4915 42.187 73.4583 42.2744C73.4251 42.3619 73.3737 42.4414 73.3076 42.5075C73.2414 42.5737 73.162 42.6251 73.0745 42.6582C72.987 42.6914 72.8935 42.7057 72.8001 42.7H30.8001C30.7067 42.7057 30.6132 42.6914 30.5257 42.6582C30.4382 42.6251 30.3587 42.5737 30.2926 42.5075C30.2264 42.4414 30.175 42.3619 30.1419 42.2744C30.1087 42.187 30.0944 42.0934 30.1001 42C30.1124 41.8184 30.1901 41.6475 30.3188 41.5188C30.4475 41.3901 30.6185 41.3124 30.8001 41.3ZM30.8001 62.3H72.8001C72.8935 62.2944 72.987 62.3086 73.0745 62.3418C73.162 62.375 73.2414 62.4264 73.3076 62.4925C73.3737 62.5587 73.4251 62.6381 73.4583 62.7256C73.4915 62.8131 73.5057 62.9066 73.5001 63C73.5057 63.0934 73.4915 63.187 73.4583 63.2744C73.4251 63.3619 73.3737 63.4414 73.3076 63.5075C73.2414 63.5737 73.162 63.6251 73.0745 63.6582C72.987 63.6914 72.8935 63.7057 72.8001 63.7H30.8001C30.7067 63.7057 30.6132 63.6914 30.5257 63.6582C30.4382 63.6251 30.3587 63.5737 30.2926 63.5075C30.2264 63.4414 30.175 63.3619 30.1419 63.2744C30.1087 63.187 30.0944 63.0934 30.1001 63C30.1124 62.8184 30.1901 62.6475 30.3188 62.5188C30.4475 62.3901 30.6185 62.3124 30.8001 62.3Z" fill="#C7C7CC"/>
</g>
<defs>
<clipPath id="clip0_51_29">
<rect width="84" height="84" fill="white"/>
</clipPath>
</defs>
</svg>
