<svg width="84" height="84" viewBox="0 0 84 84" fill="none" xmlns="http://www.w3.org/2000/svg">
<g clip-path="url(#clip0_36_123)">
<path d="M18.2 -2.47387e-05H65.8C68.1914 -0.00480251 70.5602 0.462693 72.7705 1.37564C74.9808 2.28858 76.989 3.629 78.68 5.31998C80.371 7.01095 81.7114 9.0192 82.6244 11.2295C83.5373 13.4398 84.0048 15.8086 84 18.2V65.8C84.0048 68.1914 83.5373 70.5602 82.6244 72.7705C81.7114 74.9807 80.371 76.989 78.68 78.68C76.989 80.3709 74.9808 81.7114 72.7705 82.6243C70.5602 83.5372 68.1914 84.0047 65.8 84H18.2C15.8086 84.0047 13.4398 83.5372 11.2295 82.6243C9.01926 81.7114 7.01102 80.3709 5.32004 78.68C3.62906 76.989 2.28864 74.9807 1.3757 72.7705C0.462754 70.5602 -0.00474148 68.1914 3.62965e-05 65.8V18.2C-0.00474425 15.8086 0.46275 13.4398 1.37569 11.2295C2.28863 9.0192 3.62905 7.01095 5.32003 5.31997C7.01101 3.62899 9.01926 2.28857 11.2295 1.37563C13.4398 0.462689 15.8086 -0.00480529 18.2 -2.47387e-05Z" fill="url(#paint0_linear_36_123)"/>
<path d="M42.0001 78.4C62.1033 78.4 78.4001 62.1031 78.4001 42C78.4001 21.8968 62.1033 5.59998 42.0001 5.59998C21.8969 5.59998 5.6001 21.8968 5.6001 42C5.6001 62.1031 21.8969 78.4 42.0001 78.4Z" fill="#2E2E2F"/>
<path fill-rule="evenodd" clip-rule="evenodd" d="M41.3001 22.4H42.4901L43.0501 19.6H43.5401L43.7501 22.47C44.1038 22.4822 44.4555 22.5291 44.8001 22.61L45.6401 19.88L46.1301 19.95L45.9901 22.82C46.348 22.8805 46.6995 22.9742 47.0401 23.1L48.1601 20.51L48.5801 20.65L48.0901 23.45C48.4401 23.59 48.7901 23.66 49.1401 23.8L50.5401 21.35L50.9601 21.56L50.1901 24.29C50.5401 24.43 50.8201 24.64 51.1701 24.78L52.8501 22.47L53.2701 22.68L52.1501 25.34C52.4301 25.55 52.7801 25.76 53.0601 25.97L55.0201 23.87L55.3701 24.15L53.9701 26.67C54.2501 26.88 54.5301 27.16 54.8101 27.37L56.9801 25.55L57.3301 25.9L55.6501 28.21L56.4201 28.98L58.8001 27.44L59.0801 27.79L57.1901 29.89L57.8201 30.73L60.3401 29.47L60.6201 29.89L58.4501 31.78C58.6601 32.06 58.8001 32.41 59.0101 32.69L61.6701 31.71L61.8801 32.13L59.5001 33.74L59.9201 34.79L62.6501 34.16L62.7901 34.58L60.3401 35.84C60.4801 36.19 60.5501 36.54 60.6901 36.89L63.4901 36.54L63.6301 37.03L60.9701 38.01C61.0401 38.36 61.1101 38.71 61.1801 39.13H64.0501L64.1201 39.62L61.3901 40.32C61.3901 40.67 61.4601 41.09 61.4601 41.44L64.2601 41.79V42.28L61.4601 42.63C61.4716 42.9815 61.4482 43.3332 61.3901 43.68L64.1201 44.31L64.0501 44.8L61.2501 44.87L61.0401 45.92L63.7001 46.9L63.6301 47.32L60.8301 47.04C60.7601 47.39 60.6201 47.74 60.5501 48.09L63.0701 49.35L62.9301 49.77L60.1301 49.14L59.7101 50.19L62.0901 51.8L61.8801 52.22L59.1501 51.31C59.0101 51.59 58.8001 51.94 58.6601 52.22L60.8301 54.04L60.5501 54.46L58.0301 53.2C57.819 53.5199 57.5851 53.824 57.3301 54.11L59.2901 56.14L59.0101 56.49L56.6301 54.95C56.4096 55.2405 56.1505 55.4995 55.8601 55.72L57.5401 58.03L57.1901 58.38L54.9501 56.56C54.6877 56.8137 54.4069 57.0477 54.1101 57.26L55.5101 59.71L55.1601 59.99L53.2001 57.96C52.9201 58.17 52.5701 58.38 52.2901 58.59L53.4101 61.25L52.9901 61.46L51.2401 59.22C50.928 59.4111 50.6001 59.575 50.2601 59.71L51.1001 62.44L50.6801 62.65L49.2101 60.2C48.8713 60.3479 48.5199 60.4651 48.1601 60.55L48.6501 63.35L48.2301 63.49L47.0401 60.9C46.6901 60.97 46.3401 61.11 45.9901 61.18L46.1301 64.05L45.6401 64.12L44.8001 61.39C44.4501 61.46 44.1001 61.46 43.6801 61.53L43.5401 64.4H43.0501L42.4901 61.6H41.3001L40.8101 64.4H40.5301L40.3201 61.53C39.9436 61.5136 39.569 61.4668 39.2001 61.39L38.3601 64.12L37.8701 64.05L38.0101 61.18C37.6521 61.1196 37.3006 61.0258 36.9601 60.9L35.8401 63.49L35.4201 63.35L35.9101 60.55C35.5601 60.41 35.2101 60.34 34.8601 60.2L33.3901 62.65L32.9701 62.44L33.7401 59.71C33.3901 59.57 33.1101 59.36 32.7601 59.22L31.0801 61.53L30.6601 61.32L31.7801 58.66C31.5001 58.45 31.1501 58.24 30.8701 58.03L28.9101 60.13L28.5601 59.85L29.9601 57.33C29.6801 57.12 29.4001 56.84 29.1201 56.63L26.9501 58.45L26.6001 58.1L28.2801 55.79C28.0412 55.5161 27.7839 55.2589 27.5101 55.02L25.1301 56.63L24.8501 56.28L26.8101 54.18C26.56 53.8899 26.3263 53.5861 26.1101 53.27L23.5901 54.53L23.3101 54.11L25.4801 52.29C25.2701 52.01 25.1301 51.66 24.9201 51.31L22.2601 52.29L22.0501 51.87L24.4301 50.26L24.0101 49.21L21.2801 49.84L21.1401 49.42L23.6601 48.09C23.5201 47.74 23.4501 47.39 23.3101 47.04L20.5101 47.39L20.3701 46.9L23.0301 45.92C22.9601 45.57 22.8901 45.22 22.8201 44.8H20.0201L19.9501 44.31L22.6801 43.61C22.6801 43.26 22.6101 42.91 22.6101 42.49L19.8101 42.14V41.65L22.6101 41.3C22.5985 40.9253 22.6219 40.5504 22.6801 40.18L19.9501 39.55L20.0201 39.06L22.8201 38.99L23.0301 37.94L20.3701 36.96L20.5101 36.54L23.3101 36.82C23.3801 36.47 23.5201 36.12 23.5901 35.77L21.0701 34.51L21.2101 34.09L23.9401 34.72L24.3601 33.67L21.9801 32.13L22.1901 31.71L24.8501 32.62C25.0601 32.27 25.2001 31.99 25.4101 31.64L23.2401 29.82L23.5201 29.4L26.0401 30.66C26.2501 30.38 26.4601 30.03 26.6701 29.75L24.7101 27.65L24.9901 27.3L27.3701 28.84C27.6074 28.5429 27.8647 28.2622 28.1401 28L26.4601 25.69L26.8101 25.34L28.9801 27.16C29.2425 26.9063 29.5232 26.6724 29.8201 26.46L28.4201 24.01L28.7701 23.73L30.7301 25.76C31.0101 25.55 31.3601 25.34 31.6401 25.13L30.5201 22.54L30.9401 22.33L32.6901 24.57C33.0021 24.379 33.33 24.215 33.6701 24.08L32.9001 21.35L33.3201 21.14L34.7901 23.59C35.1288 23.4421 35.4803 23.3249 35.8401 23.24L35.3501 20.44L35.7701 20.3L36.9601 22.89C37.3101 22.82 37.6601 22.68 38.0101 22.61L37.8701 19.74L38.3601 19.67L39.2001 22.4C39.5501 22.33 39.9001 22.33 40.3201 22.26L40.4601 19.39H40.9501L41.3001 22.4ZM42.0001 26.18C38.885 26.18 35.8399 27.1037 33.2498 28.8344C30.6598 30.565 28.641 33.0248 27.449 35.9027C26.2569 38.7807 25.945 41.9475 26.5527 45.0027C27.1604 48.0579 28.6604 50.8643 30.8631 53.0669C33.0658 55.2696 35.8722 56.7697 38.9274 57.3774C41.9826 57.9851 45.1494 57.6732 48.0273 56.4811C50.9053 55.289 53.3651 53.2703 55.0957 50.6802C56.8263 48.0902 57.7501 45.0451 57.7501 41.93C57.7438 37.7548 56.0824 33.7524 53.1301 30.8C50.1777 27.8477 46.1753 26.1863 42.0001 26.18Z" fill="url(#paint1_linear_36_123)"/>
<path fill-rule="evenodd" clip-rule="evenodd" d="M40.9499 12.6H42.6299L43.3999 8.4H44.0999L44.3799 12.67C44.9399 12.74 45.4999 12.81 45.9899 12.88L47.2499 8.75L47.9499 8.89L47.7399 13.23C48.2999 13.37 48.7899 13.44 49.2799 13.58L51.0299 9.59L51.7299 9.8L51.0299 14.14C51.5311 14.2959 52.022 14.4829 52.4999 14.7L54.7399 10.85L55.3699 11.13L54.1799 15.4C54.6699 15.61 55.1599 15.89 55.5799 16.1L58.2399 12.53L58.8699 12.88L57.1199 17.01C57.5792 17.2893 58.0232 17.593 58.4499 17.92L61.5299 14.63L62.0899 15.05L59.8499 18.97C60.2699 19.32 60.6899 19.67 61.0399 20.02L64.4699 17.15L64.9599 17.64L62.2999 21.28C62.6499 21.63 62.9999 22.05 63.3499 22.4L67.1299 19.95L67.5499 20.51L64.4699 23.87C64.796 24.2731 65.0998 24.6937 65.3799 25.13L69.4399 23.1L69.8599 23.66L66.4299 26.67C66.7126 27.0978 66.9697 27.5419 67.1999 28L71.5399 26.46L71.8899 27.09L68.1099 29.68C68.3199 30.17 68.5299 30.59 68.7399 31.08L73.2199 30.03L73.4299 30.66L69.3699 32.76L69.7899 34.23L74.3399 33.74L74.4799 34.44L70.2099 36.05C70.2799 36.54 70.4199 37.03 70.4899 37.52H75.1099L75.1799 38.22L70.6999 39.34C70.7597 39.8745 70.7831 40.4124 70.7699 40.95L75.3199 41.51V42.21L70.7699 42.77C70.7699 43.26 70.6999 43.75 70.6999 44.24L75.1799 45.29L75.1099 45.99L70.4899 46.06C70.4306 46.5789 70.337 47.0934 70.2099 47.6L74.4799 49.21L74.3399 49.91L69.7899 49.42L69.3699 50.89L73.4299 52.92L73.2199 53.55L68.8099 52.57C68.5999 53.06 68.3899 53.55 68.1799 54.04L71.9599 56.56L71.6799 57.19L67.4099 55.72C67.1952 56.1863 66.9374 56.6316 66.6399 57.05L70.0699 59.99L69.7199 60.55L65.6599 58.59C65.3799 59.01 65.0299 59.43 64.7499 59.85L67.8299 63.14L67.4099 63.7L63.6299 61.25C63.2799 61.67 62.9299 62.02 62.5799 62.44L65.2399 66.01L64.7499 66.5L61.3199 63.7C60.8999 64.05 60.5499 64.4 60.1299 64.75L62.2999 68.6L61.7399 69.02L58.6599 65.87C58.2399 66.15 57.8199 66.5 57.3299 66.78L59.0799 70.77L58.4499 71.12L55.7899 67.69C55.2999 67.97 54.8099 68.18 54.3199 68.46L55.5799 72.66L54.9499 72.94L52.7099 69.23C52.232 69.4471 51.7411 69.6341 51.2399 69.79L52.0099 74.06L51.3099 74.27L49.5599 70.35C49.0699 70.49 48.5099 70.63 47.9499 70.77L48.1599 74.97L47.4599 75.11L46.1999 71.12L44.5199 71.33L44.2399 75.53L43.5399 75.6L42.7699 71.47H40.9499L40.1799 75.6L39.4799 75.53L39.1999 71.33C38.6399 71.26 38.0799 71.26 37.5199 71.19L36.3299 75.18L35.6299 75.04L35.8399 70.91C35.2799 70.77 34.7199 70.7 34.1599 70.56L32.4799 74.34L31.7799 74.13L32.4099 70.07C31.8628 69.9147 31.3253 69.7277 30.7999 69.51L28.7699 73.01L28.1399 72.73L29.2599 68.81C28.7264 68.5958 28.2114 68.3382 27.7199 68.04L25.2699 71.26L24.6399 70.91L26.1799 67.2C25.6899 66.92 25.1999 66.57 24.7099 66.29L21.9799 69.23L21.4199 68.81L23.3799 65.31C22.8899 64.96 22.4699 64.61 21.9799 64.19L18.8999 66.71L18.4099 66.22L20.7199 63L19.4599 61.74L16.1699 63.91L15.6799 63.35L18.3399 60.41C17.9899 59.92 17.6399 59.5 17.2899 59.01L13.7899 60.76L13.3699 60.2L16.3099 57.61C15.9808 57.1123 15.6771 56.5983 15.3999 56.07L11.6899 57.4L11.4099 56.77L14.6299 54.6C14.3669 54.0528 14.1333 53.492 13.9299 52.92L10.1499 53.76L9.93991 53.13L13.3699 51.38C13.1599 50.82 13.0199 50.26 12.8099 49.63L8.95991 50.05L8.81991 49.35L12.4599 48.02C12.3199 47.46 12.2499 46.83 12.1099 46.27H8.18991L8.11991 45.57L11.8999 44.59C11.8299 44.03 11.8299 43.4 11.7599 42.84L7.90991 42.35V41.65L11.7599 41.16C11.7599 40.53 11.8299 39.97 11.8299 39.34L8.04991 38.43L8.11991 37.73L12.0399 37.66C12.1099 37.1 12.2499 36.47 12.3199 35.91L8.67991 34.58L8.81991 33.88L12.6699 34.3C12.8099 33.74 13.0199 33.18 13.1599 32.55L9.65991 30.8L9.93991 30.17L13.7199 31.01C13.9299 30.45 14.2099 29.89 14.4199 29.4L11.1299 27.23L11.4099 26.6L15.1199 27.93C15.3971 27.4017 15.7008 26.8877 16.0299 26.39L13.0199 23.87L13.3699 23.31L16.9399 25.06C17.2899 24.57 17.6399 24.08 17.9899 23.66L15.2599 20.72L15.6799 20.16L19.0399 22.33C19.4599 21.91 19.8099 21.49 20.2299 21.07L17.8499 17.85L18.3399 17.36L21.4899 19.88C21.9099 19.53 22.3999 19.11 22.8199 18.76L20.7899 15.26L21.3499 14.84L24.1499 17.78C24.6399 17.43 25.1299 17.15 25.6199 16.8L24.0099 13.02L24.6399 12.67L27.1599 15.89C27.6499 15.61 28.2099 15.4 28.6999 15.12L27.5099 11.2L28.1399 10.92L30.2399 14.49C30.7653 14.2723 31.3028 14.0853 31.8499 13.93L31.1499 9.8L31.8499 9.59L33.5299 13.37C34.0588 13.22 34.5965 13.1031 35.1399 13.02L34.9299 8.82L35.6299 8.68L36.8899 12.67L38.5699 12.46L38.8499 8.26L39.5499 8.19L40.9499 12.6ZM23.8699 60.76C25.7599 62.58 28.8399 61.81 30.1699 59.5L37.7299 46.2C38.4478 44.9114 38.813 43.4561 38.7884 41.9812C38.7638 40.5063 38.3504 39.064 37.5899 37.8L29.8199 24.64C28.4899 22.4 25.4099 21.63 23.5199 23.52C21.0309 25.951 19.0594 28.8604 17.7241 32.0731C16.3888 35.2859 15.7173 38.7356 15.75 42.2147C15.7827 45.6937 16.5189 49.1302 17.9143 52.3173C19.3098 55.5044 21.3356 58.3763 23.8699 60.76ZM39.9699 36.33C40.7419 37.6083 41.8302 38.6663 43.1298 39.4019C44.4294 40.1375 45.8966 40.526 47.3899 40.53H62.6499C65.3099 40.53 67.4799 38.29 66.8499 35.7C65.9983 32.2973 64.4655 29.1026 62.3441 26.3091C60.2228 23.5157 57.557 21.1814 54.5078 19.4474C51.4587 17.7135 48.0896 16.6159 44.6043 16.221C41.1189 15.8261 37.5897 16.1422 34.2299 17.15C31.7099 17.92 30.7999 20.93 32.1299 23.24L39.9699 36.33ZM47.4599 43.4C45.9762 43.4048 44.5191 43.7942 43.2308 44.5304C41.9426 45.2665 40.8673 46.3241 40.1099 47.6L32.5499 60.9C32.2185 61.4257 32.0128 62.0207 31.9488 62.6389C31.8849 63.257 31.9643 63.8816 32.181 64.464C32.3978 65.0464 32.7459 65.571 33.1984 65.997C33.6508 66.4229 34.1955 66.7388 34.7899 66.92C38.1321 67.848 41.6263 68.0966 45.0662 67.651C48.506 67.2055 51.8216 66.0748 54.817 64.3259C57.8124 62.5769 60.4268 60.2452 62.5056 57.4686C64.5843 54.6919 66.0854 51.5267 66.9199 48.16C67.5499 45.64 65.3799 43.33 62.7199 43.33L47.4599 43.4ZM41.6499 40.6C41.373 40.6 41.1023 40.6821 40.8721 40.8359C40.6419 40.9898 40.4624 41.2084 40.3565 41.4642C40.2505 41.7201 40.2228 42.0016 40.2768 42.2731C40.3308 42.5447 40.4642 42.7942 40.66 42.9899C40.8558 43.1857 41.1052 43.3191 41.3768 43.3731C41.6484 43.4271 41.9299 43.3994 42.1857 43.2934C42.4415 43.1875 42.6601 43.008 42.814 42.7778C42.9678 42.5476 43.0499 42.2769 43.0499 42C43.0488 41.629 42.901 41.2736 42.6387 41.0112C42.3764 40.7489 42.0209 40.6011 41.6499 40.6Z" fill="url(#paint2_linear_36_123)"/>
</g>
<defs>
<linearGradient id="paint0_linear_36_123" x1="42" y1="84" x2="42" y2="-2.09808e-05" gradientUnits="userSpaceOnUse">
<stop stop-color="#8E8E93"/>
<stop offset="1" stop-color="#E5E5EA"/>
</linearGradient>
<linearGradient id="paint1_linear_36_123" x1="42.0427" y1="19.5748" x2="42.0427" y2="64.3748" gradientUnits="userSpaceOnUse">
<stop stop-color="#B4B4B9"/>
<stop offset="1" stop-color="#B4B4B9"/>
</linearGradient>
<linearGradient id="paint2_linear_36_123" x1="41.6261" y1="8.36972" x2="41.6261" y2="75.5067" gradientUnits="userSpaceOnUse">
<stop stop-color="#DCDCE1"/>
<stop offset="1" stop-color="#98989D"/>
</linearGradient>
<clipPath id="clip0_36_123">
<rect width="84" height="84" fill="white"/>
</clipPath>
</defs>
</svg>
