<svg width="84" height="84" viewBox="0 0 84 84" fill="none" xmlns="http://www.w3.org/2000/svg">
<rect width="84" height="84" rx="20" fill="#1DA1F2"/>
<path d="M32.7063 62.6272C51.575 62.6272 61.8969 46.9928 61.8969 33.4584C61.8969 33.0209 61.8969 32.5772 61.8781 32.1397C63.8877 30.6849 65.6221 28.8839 67 26.8209C65.1229 27.6486 63.1336 28.1941 61.0969 28.4397C63.2423 27.1573 64.8491 25.1396 65.6187 22.7615C63.6031 23.9557 61.3969 24.794 59.0969 25.2397C57.5506 23.5929 55.5044 22.5019 53.2753 22.1358C51.0461 21.7697 48.7585 22.1488 46.7667 23.2145C44.7749 24.2801 43.19 25.9729 42.2577 28.0305C41.3253 30.0881 41.0974 32.3957 41.6094 34.5959C37.5304 34.3914 33.5401 33.3318 29.897 31.4857C26.254 29.6397 23.0396 27.0486 20.4625 23.8803C19.1542 26.1399 18.7549 28.8128 19.3458 31.3561C19.9366 33.8995 21.4733 36.1226 23.6437 37.574C22.0173 37.5188 20.4266 37.082 19 36.299V36.4397C19.0028 38.8068 19.8228 41.1004 21.3215 42.9327C22.8201 44.765 24.9055 46.0236 27.225 46.4959C26.3446 46.7385 25.4351 46.8594 24.5219 46.8553C23.8781 46.8572 23.2356 46.7976 22.6031 46.6772C23.2587 48.7148 24.5352 50.4964 26.2539 51.7724C27.9726 53.0484 30.0473 53.7548 32.1875 53.7928C28.5517 56.6484 24.0606 58.1972 19.4375 58.1897C18.6229 58.1931 17.8088 58.1461 17 58.049C21.6922 61.0405 27.1416 62.6289 32.7063 62.6272Z" fill="white"/>
</svg>
