<svg width="84" height="84" viewBox="0 0 84 84" fill="none" xmlns="http://www.w3.org/2000/svg">
<g clip-path="url(#clip0_36_217)">
<path d="M18.2 3.62544e-05H65.8C68.1914 -0.00474152 70.5602 0.462754 72.7705 1.3757C74.9808 2.28864 76.989 3.62906 78.68 5.32004C80.371 7.01102 81.7114 9.01926 82.6244 11.2295C83.5373 13.4398 84.0048 15.8086 84 18.2V65.8C84.0048 68.1914 83.5373 70.5602 82.6244 72.7705C81.7114 74.9808 80.371 76.989 78.68 78.68C76.989 80.371 74.9808 81.7114 72.7705 82.6244C70.5602 83.5373 68.1914 84.0048 65.8 84H18.2C15.8086 84.0048 13.4398 83.5373 11.2295 82.6244C9.01926 81.7114 7.01102 80.371 5.32004 78.68C3.62906 76.989 2.28864 74.9808 1.3757 72.7705C0.462754 70.5602 -0.00474152 68.1914 3.62544e-05 65.8V18.2C-0.00474152 15.8086 0.462754 13.4398 1.3757 11.2295C2.28864 9.01926 3.62906 7.01102 5.32004 5.32004C7.01102 3.62906 9.01926 2.28864 11.2295 1.3757C13.4398 0.462754 15.8086 -0.00474152 18.2 3.62544e-05Z" fill="url(#paint0_linear_36_217)"/>
<path d="M26.9499 49C35.2618 49 41.9999 42.2619 41.9999 33.95C41.9999 25.6381 35.2618 18.9 26.9499 18.9C18.638 18.9 11.8999 25.6381 11.8999 33.95C11.8999 42.2619 18.638 49 26.9499 49Z" fill="url(#paint1_linear_36_217)"/>
<path opacity="0.88" fill-rule="evenodd" clip-rule="evenodd" d="M30.1 63C27.3424 62.9133 24.7068 61.8436 22.6689 59.9839C20.631 58.1243 19.3251 55.5972 18.9871 52.8592C18.649 50.1211 19.3011 47.3523 20.8255 45.0529C22.35 42.7534 24.6463 41.0748 27.3 40.32C27.366 36.8579 28.6522 33.5303 30.9316 30.9236C33.211 28.3169 36.3375 26.5986 39.7598 26.0714C43.1822 25.5442 46.6808 26.2421 49.639 28.042C52.5972 29.8419 54.8251 32.6283 55.93 35.91C56.7627 35.7706 57.6056 35.7004 58.45 35.7C62.0702 35.7 65.5421 37.1382 68.102 39.698C70.6618 42.2579 72.1 45.7298 72.1 49.35C72.1 52.9702 70.6618 56.4422 68.102 59.002C65.5421 61.5619 62.0702 63 58.45 63H30.1Z" fill="white"/>
</g>
<defs>
<linearGradient id="paint0_linear_36_217" x1="42" y1="3.62544e-05" x2="42" y2="84" gradientUnits="userSpaceOnUse">
<stop stop-color="#1D6FF2"/>
<stop offset="1" stop-color="#1AC8FC"/>
</linearGradient>
<linearGradient id="paint1_linear_36_217" x1="26.9573" y1="18.8941" x2="26.9573" y2="48.9941" gradientUnits="userSpaceOnUse">
<stop stop-color="#FFC700"/>
<stop offset="1" stop-color="#FFEA00"/>
</linearGradient>
<clipPath id="clip0_36_217">
<rect width="84" height="84" fill="white"/>
</clipPath>
</defs>
</svg>
