<svg width="84" height="84" viewBox="0 0 84 84" fill="none" xmlns="http://www.w3.org/2000/svg">
<rect width="84" height="84" rx="20" fill="#25D366"/>
<g clip-path="url(#clip0_36_252)">
<path d="M63.0037 20.7224C60.253 17.9462 56.9773 15.7452 53.3674 14.2477C49.7575 12.7502 45.8857 11.9861 41.9775 11.9999C25.6012 11.9999 12.255 25.3424 12.24 41.7224C12.24 46.9687 13.6125 52.0724 16.2038 56.5912L12 71.9999L27.765 67.8674C32.1263 70.2409 37.0122 71.4849 41.9775 71.4862H41.9925C58.3725 71.4862 71.715 58.1437 71.73 41.7487C71.7337 37.8414 70.9643 33.9719 69.466 30.3632C67.9677 26.7546 65.7702 23.4781 63 20.7224H63.0037ZM41.9775 66.4537C37.5487 66.4552 33.2014 65.2634 29.3925 63.0037L28.4925 62.4637L19.14 64.9162L21.6375 55.7924L21.0525 54.8512C18.5768 50.9149 17.2674 46.3575 17.2762 41.7074C17.2762 28.1099 28.365 17.0174 41.9925 17.0174C45.239 17.0116 48.4546 17.6485 51.4538 18.8913C54.4531 20.1341 57.1766 21.9583 59.4675 24.2587C61.7664 26.5501 63.5888 29.274 64.8297 32.2733C66.0706 35.2726 66.7054 38.4879 66.6975 41.7337C66.6825 55.3799 55.5938 66.4537 41.9775 66.4537ZM55.5338 47.9512C54.795 47.5799 51.1462 45.7837 50.46 45.5287C49.7775 45.2849 49.2788 45.1574 48.7912 45.8999C48.2925 46.6387 46.8675 48.3224 46.44 48.8062C46.0125 49.3049 45.57 49.3612 44.8275 48.9937C44.0887 48.6187 41.6925 47.8387 38.8575 45.2999C36.645 43.3312 35.1637 40.8937 34.7213 40.1549C34.2938 39.4124 34.68 39.0149 35.0512 38.6437C35.3775 38.3137 35.79 37.7737 36.1612 37.3462C36.5362 36.9187 36.66 36.6037 36.9037 36.1087C37.1475 35.6062 37.0312 35.1787 36.8475 34.8074C36.66 34.4362 35.1787 30.7724 34.5525 29.2949C33.9525 27.8362 33.3412 28.0387 32.8837 28.0199C32.4562 27.9937 31.9575 27.9937 31.4587 27.9937C31.0821 28.003 30.7115 28.0902 30.3701 28.2496C30.0287 28.409 29.724 28.6372 29.475 28.9199C28.7925 29.6624 26.8837 31.4587 26.8837 35.1224C26.8837 38.7862 29.5462 42.3074 29.9212 42.8062C30.2887 43.3049 35.1487 50.8012 42.6075 54.0262C44.37 54.7949 45.7575 55.2487 46.8413 55.5937C48.6225 56.1637 50.2312 56.0774 51.5137 55.8937C52.9387 55.6762 55.905 54.0937 56.5312 52.3574C57.1463 50.6174 57.1463 49.1324 56.9588 48.8212C56.775 48.5062 56.2762 48.3224 55.5338 47.9512Z" fill="white"/>
</g>
<defs>
<clipPath id="clip0_36_252">
<rect width="60" height="60" fill="white" transform="translate(12 12)"/>
</clipPath>
</defs>
</svg>
