<svg width="84" height="84" viewBox="0 0 84 84" fill="none" xmlns="http://www.w3.org/2000/svg">
<rect width="84" height="84" rx="20" fill="#FF0000"/>
<g clip-path="url(#clip0_36_235)">
<path d="M42.1912 19.4962H42.525C45.6075 19.5075 61.2262 19.62 65.4375 20.7525C66.7106 21.0981 67.8707 21.7718 68.8018 22.7062C69.733 23.6407 70.4026 24.8032 70.7437 26.0775C71.1225 27.5025 71.3887 29.3887 71.5687 31.335L71.6062 31.725L71.6887 32.7L71.7187 33.09C71.9625 36.5175 71.9925 39.7275 71.9962 40.4287V40.71C71.9925 41.4375 71.9587 44.865 71.6887 48.435L71.6587 48.8287L71.625 49.2187C71.4375 51.3637 71.16 53.4937 70.7437 55.0612C70.4036 56.336 69.7344 57.4991 68.8031 58.4337C67.8718 59.3683 66.7111 60.0416 65.4375 60.3862C61.0875 61.5562 44.5537 61.6387 42.2625 61.6425H41.73C40.5712 61.6425 35.7787 61.62 30.7537 61.4475L30.1162 61.425L29.79 61.41L29.1487 61.3837L28.5075 61.3575C24.345 61.1737 20.3812 60.8775 18.555 60.3825C17.2818 60.0382 16.1215 59.3654 15.1902 58.4315C14.2589 57.4976 13.5894 56.3353 13.2487 55.0612C12.8325 53.4975 12.555 51.3637 12.3675 49.2187L12.3375 48.825L12.3075 48.435C12.1224 45.894 12.0199 43.3476 12 40.8L12 40.3387C12.0075 39.5325 12.0375 36.7462 12.24 33.6712L12.2662 33.285L12.2775 33.09L12.3075 32.7L12.39 31.725L12.4275 31.335C12.6075 29.3887 12.8737 27.4987 13.2525 26.0775C13.5926 24.8026 14.2619 23.6396 15.1932 22.705C16.1245 21.7704 17.2851 21.0971 18.5587 20.7525C20.385 20.265 24.3487 19.965 28.5112 19.7775L29.1487 19.7512L29.7937 19.7287L30.1162 19.7175L30.7575 19.6912C34.3264 19.5764 37.8968 19.5126 41.4675 19.5H42.1912V19.4962ZM36 31.5337V49.6012L51.5887 40.5712L36 31.5337Z" fill="white"/>
</g>
<defs>
<clipPath id="clip0_36_235">
<rect width="60" height="60" fill="white" transform="translate(12 12)"/>
</clipPath>
</defs>
</svg>
