<svg width="1080" height="1080" viewBox="0 0 1080 1080" fill="none" xmlns="http://www.w3.org/2000/svg">
<rect width="1080" height="1080" fill="black"/>
<path d="M301.541 504.776C298.277 499.4 293.765 495.272 288.005 492.392C282.437 489.512 275.813 488.072 268.133 488.072C253.925 488.072 242.693 492.68 234.437 501.896C226.373 511.112 222.341 523.496 222.341 539.048C222.341 556.52 226.661 569.864 235.301 579.08C244.133 588.104 256.901 592.616 273.605 592.616C293.381 592.616 307.493 583.688 315.941 565.832H259.205V525.224H364.613V579.944C360.197 590.696 353.669 600.776 345.029 610.184C336.581 619.592 325.829 627.368 312.773 633.512C299.717 639.464 284.837 642.44 268.133 642.44C247.781 642.44 229.733 638.12 213.989 629.48C198.437 620.648 186.341 608.456 177.701 592.904C169.253 577.16 165.029 559.208 165.029 539.048C165.029 519.08 169.253 501.32 177.701 485.768C186.341 470.024 198.437 457.832 213.989 449.192C229.541 440.36 247.493 435.944 267.845 435.944C293.381 435.944 314.501 442.088 331.205 454.376C347.909 466.664 358.277 483.464 362.309 504.776H301.541ZM723.389 607.88H651.389L640.445 641H581.117L655.133 437.96H720.221L793.949 641H734.333L723.389 607.88ZM709.277 564.68L687.389 499.016L665.789 564.68H709.277ZM972.763 505.64C972.763 517.928 969.883 529.16 964.123 539.336C958.555 549.32 950.011 557.384 938.491 563.528C927.163 569.48 913.243 572.456 896.731 572.456H868.795V641H812.347V437.96H896.731C913.051 437.96 926.875 440.84 938.203 446.6C949.723 452.36 958.363 460.328 964.123 470.504C969.883 480.68 972.763 492.392 972.763 505.64ZM891.259 527.528C907.195 527.528 915.163 520.232 915.163 505.64C915.163 490.856 907.195 483.464 891.259 483.464H868.795V527.528H891.259Z" fill="white"/>
<path d="M445.205 437.96V555.752C445.205 566.696 447.701 575.144 452.693 581.096C457.877 587.048 465.653 590.024 476.021 590.024C486.389 590.024 494.165 587.048 499.349 581.096C504.725 574.952 507.413 566.504 507.413 555.752V437.96H563.861V555.752C563.861 574.376 559.925 590.312 552.053 603.56C544.181 616.616 533.429 626.504 519.797 633.224C506.357 639.752 491.381 643.016 474.869 643.016C458.357 643.016 443.573 639.752 430.517 633.224C417.653 626.504 407.477 616.616 399.989 603.56C392.693 590.504 389.045 574.568 389.045 555.752V437.96H445.205Z" fill="#65DFC9"/>
</svg>
