<svg width="700" height="700" viewBox="0 0 700 700" fill="none" xmlns="http://www.w3.org/2000/svg">
<line y1="348.5" x2="700" y2="348.5" stroke="white" stroke-width="3"/>
<line x1="173.701" y1="652.359" x2="523.701" y2="46.1411" stroke="white" stroke-width="3"/>
<line x1="176.299" y1="46.1411" x2="526.299" y2="652.359" stroke="white" stroke-width="3"/>
<line x1="348.5" y1="700" x2="348.5" stroke="white" stroke-width="3"/>
<line x1="46.1411" y1="523.701" x2="652.359" y2="173.701" stroke="white" stroke-width="3"/>
<line x1="47.6411" y1="173.701" x2="653.859" y2="523.701" stroke="white" stroke-width="3"/>
<path d="M434.975 32.6781L435.021 32.6958L435.071 32.7039L524.733 47.3541L582.251 117.678L582.283 117.717L582.322 117.749L652.646 175.267L667.296 264.929L667.304 264.979L667.322 265.025L699.465 350L667.322 434.975L667.304 435.021L667.296 435.071L652.646 524.733L582.322 582.251L582.283 582.283L582.251 582.322L524.733 652.646L435.071 667.296L435.021 667.304L434.975 667.322L350 699.465L265.025 667.322L264.979 667.304L264.929 667.296L175.267 652.646L117.749 582.322L117.717 582.283L117.678 582.251L47.3541 524.733L32.7039 435.071L32.6958 435.021L32.6781 434.975L0.53458 350L32.6781 265.025L32.6958 264.979L32.7039 264.929L47.3541 175.267L117.678 117.749L117.717 117.717L117.749 117.678L175.267 47.3541L264.929 32.7039L264.979 32.6958L265.025 32.6781L350 0.53458L434.975 32.6781Z" stroke="white"/>
<path d="M425.513 67.9878L425.56 68.0055L425.609 68.0136L505.288 81.0326L556.402 143.527L556.434 143.566L556.473 143.597L618.967 194.711L631.986 274.39L631.994 274.44L632.012 274.486L660.576 350L632.012 425.513L631.994 425.56L631.986 425.609L618.967 505.288L556.473 556.402L556.434 556.434L556.402 556.473L505.288 618.967L425.609 631.986L425.56 631.994L425.513 632.012L350 660.576L274.486 632.012L274.44 631.994L274.39 631.986L194.711 618.967L143.597 556.473L143.566 556.434L143.527 556.402L81.0326 505.288L68.0136 425.609L68.0055 425.56L67.9878 425.513L39.4233 350L67.9878 274.486L68.0055 274.44L68.0136 274.39L81.0326 194.712L143.527 143.597L143.566 143.566L143.597 143.527L194.712 81.0326L274.39 68.0136L274.44 68.0055L274.486 67.9878L350 39.4233L425.513 67.9878Z" stroke="white"/>
<path d="M416.052 103.298L416.099 103.316L416.148 103.324L485.844 114.712L530.554 169.376L530.586 169.415L530.624 169.446L585.288 214.156L596.676 283.852L596.684 283.901L596.702 283.948L621.688 350L596.702 416.052L596.684 416.099L596.676 416.148L585.288 485.844L530.624 530.554L530.586 530.586L530.554 530.624L485.844 585.288L416.148 596.676L416.099 596.684L416.052 596.702L350 621.688L283.948 596.702L283.901 596.684L283.852 596.676L214.156 585.288L169.446 530.624L169.415 530.586L169.376 530.554L114.712 485.844L103.324 416.148L103.316 416.099L103.298 416.052L78.3124 350L103.298 283.948L103.316 283.901L103.324 283.852L114.712 214.156L169.376 169.446L169.415 169.415L169.446 169.376L214.156 114.712L283.852 103.324L283.901 103.316L283.948 103.298L350 78.3124L416.052 103.298Z" stroke="white"/>
<path d="M406.591 138.608L406.637 138.625L406.687 138.634L466.399 148.39L504.705 195.224L504.737 195.263L504.775 195.295L551.609 233.6L561.366 293.313L561.374 293.362L561.392 293.409L582.799 350L561.392 406.591L561.374 406.637L561.366 406.687L551.609 466.399L504.775 504.705L504.737 504.737L504.705 504.775L466.399 551.609L406.687 561.366L406.637 561.374L406.591 561.392L350 582.799L293.409 561.392L293.362 561.374L293.313 561.366L233.6 551.609L195.295 504.775L195.263 504.737L195.224 504.705L148.39 466.399L138.634 406.687L138.625 406.637L138.608 406.591L117.201 350L138.608 293.409L138.625 293.362L138.634 293.313L148.39 233.6L195.224 195.295L195.263 195.263L195.295 195.224L233.6 148.39L293.313 138.634L293.362 138.625L293.409 138.608L350 117.201L406.591 138.608Z" stroke="white"/>
<path d="M397.13 173.918L397.176 173.936L397.226 173.944L446.955 182.069L478.857 221.073L478.888 221.112L478.927 221.144L517.931 253.045L526.056 302.774L526.065 302.824L526.082 302.871L543.91 350L526.082 397.13L526.065 397.176L526.056 397.226L517.931 446.955L478.927 478.857L478.888 478.888L478.857 478.927L446.955 517.931L397.226 526.056L397.176 526.065L397.13 526.082L350 543.91L302.871 526.082L302.824 526.065L302.774 526.056L253.045 517.931L221.144 478.927L221.112 478.888L221.073 478.857L182.069 446.955L173.944 397.226L173.936 397.176L173.918 397.13L156.09 350L173.918 302.871L173.936 302.824L173.944 302.774L182.069 253.045L221.073 221.144L221.112 221.112L221.144 221.073L253.045 182.069L302.774 173.944L302.824 173.936L302.871 173.918L350 156.09L397.13 173.918Z" stroke="white"/>
<path d="M387.668 209.228L387.715 209.245L387.764 209.254L427.51 215.748L453.008 246.922L453.039 246.96L453.078 246.992L484.252 272.489L490.746 312.235L490.754 312.285L490.772 312.332L505.021 350L490.772 387.668L490.754 387.715L490.746 387.764L484.252 427.51L453.078 453.008L453.039 453.039L453.008 453.078L427.51 484.252L387.764 490.746L387.715 490.754L387.668 490.772L350 505.021L312.332 490.772L312.285 490.754L312.235 490.746L272.489 484.252L246.992 453.078L246.96 453.039L246.922 453.008L215.748 427.51L209.254 387.764L209.245 387.715L209.228 387.668L194.979 350L209.228 312.332L209.245 312.285L209.254 312.235L215.748 272.489L246.922 246.992L246.96 246.96L246.992 246.922L272.489 215.748L312.235 209.254L312.285 209.245L312.332 209.228L350 194.979L387.668 209.228Z" stroke="white"/>
<path d="M378.207 244.538L378.254 244.556L378.303 244.564L408.066 249.427L427.159 272.771L427.191 272.809L427.23 272.841L450.574 291.934L455.437 321.697L455.445 321.746L455.462 321.793L466.132 350L455.462 378.207L455.445 378.254L455.437 378.303L450.574 408.066L427.23 427.159L427.191 427.191L427.159 427.23L408.066 450.574L378.303 455.437L378.254 455.445L378.207 455.462L350 466.132L321.793 455.462L321.746 455.445L321.697 455.437L291.934 450.574L272.841 427.23L272.809 427.191L272.771 427.159L249.427 408.066L244.564 378.303L244.556 378.254L244.538 378.207L233.868 350L244.538 321.793L244.556 321.746L244.564 321.697L249.427 291.934L272.771 272.841L272.809 272.809L272.841 272.771L291.934 249.427L321.697 244.564L321.746 244.556L321.793 244.538L350 233.868L378.207 244.538Z" stroke="white"/>
<path d="M368.746 279.848L368.792 279.865L368.842 279.873L388.622 283.105L401.31 298.619L401.342 298.658L401.381 298.69L416.895 311.378L420.126 331.158L420.134 331.207L420.152 331.254L427.243 350L420.152 368.746L420.134 368.792L420.126 368.842L416.895 388.622L401.381 401.31L401.342 401.342L401.31 401.381L388.622 416.895L368.842 420.126L368.792 420.134L368.746 420.152L350 427.243L331.254 420.152L331.207 420.134L331.158 420.126L311.378 416.895L298.69 401.381L298.658 401.342L298.619 401.31L283.105 388.622L279.873 368.842L279.865 368.792L279.848 368.746L272.757 350L279.848 331.254L279.865 331.207L279.873 331.158L283.105 311.378L298.619 298.69L298.658 298.658L298.69 298.619L311.378 283.105L331.158 279.873L331.207 279.865L331.254 279.848L350 272.757L368.746 279.848Z" stroke="white"/>
<path d="M359.285 315.158L359.331 315.176L359.381 315.184L369.177 316.784L375.462 324.468L375.494 324.507L375.532 324.539L383.216 330.823L384.817 340.62L384.825 340.669L384.843 340.716L388.355 350L384.843 359.285L384.825 359.331L384.817 359.381L383.216 369.177L375.532 375.462L375.494 375.494L375.462 375.532L369.177 383.216L359.381 384.817L359.331 384.825L359.285 384.843L350 388.355L340.716 384.843L340.669 384.825L340.62 384.817L330.823 383.216L324.539 375.532L324.507 375.494L324.468 375.462L316.784 369.177L315.184 359.381L315.176 359.331L315.158 359.285L311.646 350L315.158 340.716L315.176 340.669L315.184 340.62L316.784 330.823L324.468 324.539L324.507 324.507L324.539 324.468L330.823 316.784L340.62 315.184L340.669 315.176L340.716 315.158L350 311.646L359.285 315.158Z" stroke="white"/>
</svg>
