<svg width="50" height="50" viewBox="0 0 50 50" fill="none" xmlns="http://www.w3.org/2000/svg">
<path d="M0 25C0 18.3696 2.63392 12.0107 7.32233 7.32233C12.0107 2.63392 18.3696 0 25 0C31.6304 0 37.9893 2.63392 42.6777 7.32233C47.3661 12.0107 50 18.3696 50 25C50 31.6304 47.3661 37.9893 42.6777 42.6777C37.9893 47.3661 31.6304 50 25 50C18.3696 50 12.0107 47.3661 7.32233 42.6777C2.63392 37.9893 0 31.6304 0 25ZM23.4375 3.36563C21.3438 4.00313 19.2656 5.92812 17.5406 9.1625C16.9723 10.2378 16.4835 11.3533 16.0781 12.5H23.4375V3.36563ZM12.7812 12.5C13.3021 10.8401 13.9715 9.23042 14.7812 7.69062C15.3216 6.66892 15.9456 5.69372 16.6469 4.775C12.775 6.38071 9.44377 9.06132 7.04688 12.5H12.7812ZM10.9625 23.4375C11.0562 20.6969 11.3938 18.0688 11.9375 15.625H5.23125C4.06599 18.0783 3.37067 20.7282 3.18125 23.4375H10.9625ZM15.1469 15.625C14.5322 18.1869 14.1783 20.8044 14.0906 23.4375H23.4375V15.625H15.1469ZM26.5625 15.625V23.4375H35.9062C35.8197 20.8045 35.4668 18.187 34.8531 15.625H26.5625ZM14.0938 26.5625C14.1804 29.1955 14.5333 31.813 15.1469 34.375H23.4375V26.5625H14.0938ZM26.5625 26.5625V34.375H34.8531C35.4375 31.9844 35.8094 29.35 35.9094 26.5625H26.5625ZM16.0781 37.5C16.5094 38.7062 17 39.825 17.5406 40.8375C19.2656 44.0719 21.3469 45.9938 23.4375 46.6344V37.5H16.0781ZM16.6469 45.225C15.9455 44.3063 15.3215 43.3311 14.7812 42.3094C13.9715 40.7696 13.3021 39.1599 12.7812 37.5H7.04688C9.44364 40.9388 12.7749 43.6194 16.6469 45.225ZM11.9375 34.375C11.3724 31.8065 11.046 29.1912 10.9625 26.5625H3.18125C3.375 29.3438 4.09062 31.9781 5.23125 34.375H11.9375ZM33.3531 45.225C37.2251 43.6194 40.5564 40.9388 42.9531 37.5H37.2188C36.6978 39.1599 36.0285 40.7696 35.2188 42.3094C34.6786 43.3312 34.0546 44.3064 33.3531 45.225ZM26.5625 37.5V46.6344C28.6562 45.9969 30.7344 44.0719 32.4594 40.8375C33 39.825 33.4906 38.7062 33.9219 37.5H26.5625ZM38.0625 34.375H44.7687C45.9094 31.9781 46.625 29.3438 46.8188 26.5625H39.0375C38.954 29.1912 38.6276 31.8065 38.0625 34.375ZM46.8188 23.4375C46.6293 20.7282 45.9339 18.0783 44.7687 15.625H38.0625C38.6063 18.0688 38.9437 20.6969 39.0375 23.4375H46.8188ZM35.2188 7.69062C35.9906 9.14062 36.6625 10.7531 37.2188 12.5H42.9531C40.5564 9.0612 37.2251 6.38056 33.3531 4.775C34.0344 5.6625 34.6594 6.64375 35.2188 7.69062ZM33.9219 12.5C33.5166 11.3533 33.0278 10.2378 32.4594 9.1625C30.7344 5.92812 28.6562 4.00625 26.5625 3.36563V12.5H33.9219Z" fill="white"/>
</svg>
